<?xml version="1.0" encoding="utf-8"?>
<!-- Generator: Adobe Illustrator 26.0.1, SVG Export Plug-In . SVG Version: 6.00 Build 0)  -->
<svg version="1.1" id="Layer_1" xmlns="http://www.w3.org/2000/svg" xmlns:xlink="http://www.w3.org/1999/xlink" x="0px" y="0px"
	 viewBox="0 0 803 543.3" style="enable-background:new 0 0 803 543.3;" xml:space="preserve">
<style type="text/css">
	.st0{fill:url(#SVGID_1_);}
	.st1{fill:url(#SVGID_00000028301022449687904780000004655201131647477905_);fill-opacity:0.2;}
	.st2{fill:url(#SVGID_00000054256195688438356990000017605531109002358425_);}
	.st3{fill:url(#SVGID_00000132053591701430538220000016969349660355660676_);}
	.st4{fill:url(#SVGID_00000151544712413727942560000005980586041217876667_);}
	.st5{fill:url(#SVGID_00000011014606136715092160000012804162641001589903_);}
	.st6{fill:url(#SVGID_00000068644479009087247590000009440572606737982081_);stroke:#242424;stroke-width:0.7236;}
	.st7{fill:url(#SVGID_00000149378731112707698080000005764590112714660745_);}
	.st8{fill:url(#SVGID_00000064316238311712956790000006799746949640423840_);}
	.st9{fill:url(#SVGID_00000045589359501641628160000017034301940548121759_);}
	.st10{fill:url(#SVGID_00000150095475470928539710000010937533396808318890_);}
	.st11{fill:url(#SVGID_00000050647909712824223890000012092409810279757234_);}
	.st12{fill:url(#SVGID_00000133526243698368063050000007446313154439295654_);}
	.st13{fill:url(#SVGID_00000137123728125558196740000004855382801984751024_);}
	.st14{fill:url(#SVGID_00000037653976875579299010000005926073717905145776_);}
	.st15{fill:url(#SVGID_00000150099588189584877540000017680679477298233529_);}
	.st16{fill:url(#SVGID_00000176747442122831200470000014481012659056841616_);}
	.st17{fill:url(#SVGID_00000090275940385761477170000013217793026231761318_);}
	.st18{fill:url(#SVGID_00000026860333018439470610000003848151837664122038_);}
	.st19{fill:url(#SVGID_00000120538363223030395880000010091087212604450178_);}
	.st20{fill:url(#SVGID_00000148656247231006721980000005247600479973292701_);}
	.st21{fill:url(#SVGID_00000116212668991559979480000003794917174487300741_);}
	.st22{fill:url(#SVGID_00000098924268175501879220000008566329930666029739_);}
	.st23{fill:url(#SVGID_00000127745124597827518960000012586939615579755139_);}
	.st24{fill:url(#SVGID_00000047761953058808042040000005377743665926363811_);}
	.st25{fill:url(#SVGID_00000060712445970023653330000007999527487998637953_);}
	.st26{fill:url(#SVGID_00000072998686619943864400000003590706597536889776_);}
	.st27{fill:url(#SVGID_00000078748716928503230680000011716202566230542464_);}
	.st28{fill:url(#SVGID_00000160155850337908616140000008317297961596690367_);}
	.st29{fill:url(#SVGID_00000182514444014320295650000001790353742927690655_);}
	.st30{fill:url(#SVGID_00000037660482459566800960000001694743401210337464_);}
	.st31{fill:url(#SVGID_00000109723551810938870340000009780680870996883370_);}
	.st32{fill:url(#SVGID_00000031208190286426269320000015378071964558631351_);}
	.st33{fill:url(#SVGID_00000080196298409932369440000003874671976590549673_);}
	.st34{fill:url(#SVGID_00000132788144033862792950000005605645028837045682_);}
	.st35{fill:url(#SVGID_00000078744943123061500520000013821090089254674351_);}
	.st36{fill:url(#SVGID_00000153705033740622318050000015478657846725095552_);}
	.st37{fill:url(#SVGID_00000167365368329645491690000004493681590473677759_);}
	.st38{fill:url(#SVGID_00000009591818939108685430000016246141288687980979_);}
	.st39{fill:url(#SVGID_00000041280502445288999990000007157412921158911415_);}
	.st40{fill:url(#SVGID_00000088840225798038243220000010101569946058940595_);}
	.st41{fill:url(#SVGID_00000031207630007605471400000008704662195422466189_);}
	.st42{fill:url(#SVGID_00000039102914941570444670000000302052146781390489_);}
	.st43{fill:url(#SVGID_00000129926245437128249980000005639834277801975690_);}
	.st44{fill:url(#SVGID_00000029758189497496819700000011979088620761862821_);}
	.st45{fill:url(#SVGID_00000181796763003540197770000013850591669353008038_);}
	.st46{fill:url(#SVGID_00000170250879968005743650000002494471097723472034_);}
	.st47{fill:url(#SVGID_00000172404310628588882870000006356160818785232310_);}
	.st48{fill:url(#SVGID_00000127736359575640199300000012845936398355966080_);}
	.st49{fill:url(#SVGID_00000056415482277804341850000015554968873681054851_);}
	.st50{fill:url(#SVGID_00000005261692026981700010000014745324550459114630_);}
	.st51{fill:url(#SVGID_00000063602200305749386700000011397438331978317755_);}
	.st52{fill:url(#SVGID_00000060722975953600048850000010826160906480076211_);}
	.st53{fill:url(#SVGID_00000033327845957152376230000010846024951186137772_);}
	.st54{fill:url(#SVGID_00000123422807648595778070000016206865033819793056_);}
	.st55{fill:url(#SVGID_00000163055457074015213670000002733141537526851483_);}
	.st56{fill:url(#SVGID_00000006708266280532548570000017148657678554134202_);}
	.st57{fill:url(#SVGID_00000039835648834558781130000016661796440554146495_);}
	.st58{fill:url(#SVGID_00000035502592541550508400000011753958399761248391_);}
	.st59{fill:url(#SVGID_00000035515746219224951500000006943720117139455159_);}
	.st60{fill:url(#SVGID_00000058555293818565226320000014927999278509448080_);}
	.st61{fill:none;stroke:#5F9EF3;stroke-width:1.206;}
	.st62{fill:url(#SVGID_00000018951257375927872120000003819976774596561818_);}
	.st63{fill:none;stroke:#FFFFFF;stroke-width:0.938;}
	.st64{fill:#FFFFFF;}
	.st65{fill-opacity:0.49;stroke:#5F9EF3;stroke-width:1.206;}
	.st66{fill:#FFFFFF;fill-opacity:0.25;}
	.st67{fill:#F9FAFB;}
	.st68{fill:#FAFCFF;}
	.st69{fill:none;stroke:#666666;}
	.st70{fill:#48484A;}
	.st71{fill:none;stroke:#0099EE;stroke-width:2;}
	.st72{fill:#FAFCFF;stroke:#666666;}
	.st73{fill:#FFFFFF;stroke:#D7D7D7;stroke-miterlimit:10;}
	.st74{fill:#2196F3;}
	.st75{fill:#D7D7D7;}
	.st76{fill:#454545;}
	.st77{fill:#3A4A5B;}
	.st78{fill:#545454;}
	.st79{fill:none;stroke:#000000;stroke-width:0.3;}
	.st80{fill:#FFFFFF;fill-opacity:0.33;}
</style>
<g>
	
		<linearGradient id="SVGID_1_" gradientUnits="userSpaceOnUse" x1="402.15" y1="710" x2="402.15" y2="985.565" gradientTransform="matrix(1 0 0 1 0 -426)">
		<stop  offset="0" style="stop-color:#57555A"/>
		<stop  offset="1" style="stop-color:#6A6770"/>
	</linearGradient>
	<path class="st0" d="M44,284h716.3c3.3,0,6,2.7,6,6v247.2c0,3.3-2.7,6-6,6H44c-3.3,0-6-2.7-6-6V290C38,286.7,40.7,284,44,284z"/>
	
		<radialGradient id="SVGID_00000078038922547029614480000018024694404996834460_" cx="-1111.3672" cy="-58.2476" r="0.9999" gradientTransform="matrix(7.938284e-15 129.642 -239.18 1.464555e-14 -13529.5098 144493.4688)" gradientUnits="userSpaceOnUse">
		<stop  offset="0" style="stop-color:#FFFFFF"/>
		<stop  offset="0.6507" style="stop-color:#000000"/>
	</radialGradient>
	<path style="fill:url(#SVGID_00000078038922547029614480000018024694404996834460_);fill-opacity:0.2;" d="M44,284h716.3
		c3.3,0,6,2.7,6,6v247.2c0,3.3-2.7,6-6,6H44c-3.3,0-6-2.7-6-6V290C38,286.7,40.7,284,44,284z"/>
	
		<linearGradient id="SVGID_00000016761697602320891050000008237088459136369579_" gradientUnits="userSpaceOnUse" x1="698.25" y1="726.9" x2="698.25" y2="767.9" gradientTransform="matrix(1 0 0 1 0 -426)">
		<stop  offset="0" style="stop-color:#0B0A0C"/>
		<stop  offset="0.9999" style="stop-color:#262626"/>
		<stop  offset="1" style="stop-color:#131318"/>
	</linearGradient>
	<path style="fill:url(#SVGID_00000016761697602320891050000008237088459136369579_);" d="M645.8,300.9h104.9c2.7,0,4.8,2.2,4.8,4.8
		v31.4c0,2.7-2.2,4.8-4.8,4.8H645.8c-2.7,0-4.8-2.2-4.8-4.8v-31.4C641,303,643.1,300.9,645.8,300.9z"/>
	
		<linearGradient id="SVGID_00000000220185796626194540000006112863864923112381_" gradientUnits="userSpaceOnUse" x1="401.6" y1="917.4" x2="401.6" y2="958.4" gradientTransform="matrix(1 0 0 1 0 -426)">
		<stop  offset="0" style="stop-color:#0B0A0C"/>
		<stop  offset="0.9999" style="stop-color:#262626"/>
		<stop  offset="1" style="stop-color:#131318"/>
	</linearGradient>
	<path style="fill:url(#SVGID_00000000220185796626194540000006112863864923112381_);" d="M262.3,491.4h278.6c2.7,0,4.8,2.2,4.8,4.8
		v31.4c0,2.7-2.2,4.8-4.8,4.8H262.3c-2.7,0-4.8-2.2-4.8-4.8v-31.4C257.5,493.6,259.6,491.4,262.3,491.4z"/>
	
		<linearGradient id="SVGID_00000054239281790848525080000005131746667426578566_" gradientUnits="userSpaceOnUse" x1="219.5484" y1="917.4" x2="219.5484" y2="958.4" gradientTransform="matrix(1 0 0 1 0 -426)">
		<stop  offset="0" style="stop-color:#0B0A0C"/>
		<stop  offset="0.9999" style="stop-color:#262626"/>
		<stop  offset="1" style="stop-color:#131318"/>
	</linearGradient>
	<path style="fill:url(#SVGID_00000054239281790848525080000005131746667426578566_);" d="M191.2,491.4h56.7c2.7,0,4.8,2.2,4.8,4.8
		v31.4c0,2.7-2.2,4.8-4.8,4.8h-56.7c-2.7,0-4.8-2.2-4.8-4.8v-31.4C186.3,493.6,188.5,491.4,191.2,491.4z"/>
	
		<linearGradient id="SVGID_00000183212423268304588670000013897870468909989283_" gradientUnits="userSpaceOnUse" x1="583.65" y1="917.4" x2="583.65" y2="958.4" gradientTransform="matrix(1 0 0 1 0 -426)">
		<stop  offset="0" style="stop-color:#0B0A0C"/>
		<stop  offset="0.9999" style="stop-color:#262626"/>
		<stop  offset="1" style="stop-color:#131318"/>
	</linearGradient>
	<path style="fill:url(#SVGID_00000183212423268304588670000013897870468909989283_);" d="M555.4,491.4H612c2.7,0,4.8,2.2,4.8,4.8
		v31.4c0,2.7-2.2,4.8-4.8,4.8h-56.7c-2.7,0-4.8-2.2-4.8-4.8v-31.4C550.5,493.6,552.7,491.4,555.4,491.4z"/>
	
		<linearGradient id="SVGID_00000013886040022819940210000006660684313208871342_" gradientUnits="userSpaceOnUse" x1="722.4484" y1="917.4" x2="722.4484" y2="958.4" gradientTransform="matrix(1 0 0 1 0 -426)">
		<stop  offset="0" style="stop-color:#0B0A0C"/>
		<stop  offset="0.9999" style="stop-color:#262626"/>
		<stop  offset="1" style="stop-color:#131318"/>
	</linearGradient>
	<path style="fill:url(#SVGID_00000013886040022819940210000006660684313208871342_);stroke:#242424;stroke-width:0.7236;" d="
		M694.1,491.4h56.7c2.7,0,4.8,2.2,4.8,4.8v31.4c0,2.7-2.2,4.8-4.8,4.8h-56.7c-2.7,0-4.8-2.2-4.8-4.8v-31.4
		C689.2,493.6,691.4,491.4,694.1,491.4z"/>
	
		<linearGradient id="SVGID_00000108290204398949099230000010704168366787480238_" gradientUnits="userSpaceOnUse" x1="83.25" y1="917.4" x2="83.25" y2="958.4" gradientTransform="matrix(1 0 0 1 0 -426)">
		<stop  offset="0" style="stop-color:#0B0A0C"/>
		<stop  offset="0.9999" style="stop-color:#262626"/>
		<stop  offset="1" style="stop-color:#131318"/>
	</linearGradient>
	<path style="fill:url(#SVGID_00000108290204398949099230000010704168366787480238_);" d="M54.9,491.4h56.7c2.7,0,4.8,2.2,4.8,4.8
		v31.4c0,2.7-2.2,4.8-4.8,4.8H54.9c-2.7,0-4.8-2.2-4.8-4.8v-31.4C50.1,493.6,52.2,491.4,54.9,491.4z"/>
	
		<linearGradient id="SVGID_00000008853223050531429420000014644917666073953189_" gradientUnits="userSpaceOnUse" x1="101.95" y1="869.2" x2="101.95" y2="910.2" gradientTransform="matrix(1 0 0 1 0 -426)">
		<stop  offset="0" style="stop-color:#0B0A0C"/>
		<stop  offset="0.9999" style="stop-color:#262626"/>
		<stop  offset="1" style="stop-color:#131318"/>
	</linearGradient>
	<path style="fill:url(#SVGID_00000008853223050531429420000014644917666073953189_);" d="M54.9,443.2H149c2.7,0,4.8,2.2,4.8,4.8
		v31.4c0,2.7-2.2,4.8-4.8,4.8H54.9c-2.7,0-4.8-2.2-4.8-4.8V448C50.1,445.3,52.2,443.2,54.9,443.2z"/>
	
		<linearGradient id="SVGID_00000068645493878333888150000012637517702541661344_" gradientUnits="userSpaceOnUse" x1="89.85" y1="820.95" x2="89.85" y2="861.95" gradientTransform="matrix(1 0 0 1 0 -426)">
		<stop  offset="0" style="stop-color:#0B0A0C"/>
		<stop  offset="0.9999" style="stop-color:#262626"/>
		<stop  offset="1" style="stop-color:#131318"/>
	</linearGradient>
	<path style="fill:url(#SVGID_00000068645493878333888150000012637517702541661344_);" d="M54.9,395h69.9c2.7,0,4.8,2.2,4.8,4.8
		v31.4c0,2.7-2.2,4.8-4.8,4.8H54.9c-2.7,0-4.8-2.2-4.8-4.8v-31.4C50.1,397.1,52.2,395,54.9,395z"/>
	
		<linearGradient id="SVGID_00000127765472761346311100000001684656931583689360_" gradientUnits="userSpaceOnUse" x1="83.25" y1="772.7" x2="83.25" y2="813.7" gradientTransform="matrix(1 0 0 1 0 -426)">
		<stop  offset="0" style="stop-color:#0B0A0C"/>
		<stop  offset="0.9999" style="stop-color:#262626"/>
		<stop  offset="1" style="stop-color:#131318"/>
	</linearGradient>
	<path style="fill:url(#SVGID_00000127765472761346311100000001684656931583689360_);" d="M54.9,346.7h56.7c2.7,0,4.8,2.2,4.8,4.8
		v31.4c0,2.7-2.2,4.8-4.8,4.8H54.9c-2.7,0-4.8-2.2-4.8-4.8v-31.4C50.1,348.9,52.2,346.7,54.9,346.7z"/>
	
		<linearGradient id="SVGID_00000097471092327965228910000002382295543698436786_" gradientUnits="userSpaceOnUse" x1="151.3" y1="917.4" x2="151.3" y2="958.4" gradientTransform="matrix(1 0 0 1 0 -426)">
		<stop  offset="0" style="stop-color:#0B0A0C"/>
		<stop  offset="0.9999" style="stop-color:#262626"/>
		<stop  offset="1" style="stop-color:#131318"/>
	</linearGradient>
	<path style="fill:url(#SVGID_00000097471092327965228910000002382295543698436786_);" d="M128.4,491.4h45.8c2.7,0,4.8,2.2,4.8,4.8
		v31.4c0,2.7-2.2,4.8-4.8,4.8h-45.8c-2.7,0-4.8-2.2-4.8-4.8v-31.4C123.6,493.6,125.8,491.4,128.4,491.4z"/>
	
		<linearGradient id="SVGID_00000119087200728138303920000016496475711483750789_" gradientUnits="userSpaceOnUse" x1="185.1" y1="869.2" x2="185.1" y2="910.2" gradientTransform="matrix(1 0 0 1 0 -426)">
		<stop  offset="0" style="stop-color:#0B0A0C"/>
		<stop  offset="0.9999" style="stop-color:#262626"/>
		<stop  offset="1" style="stop-color:#131318"/>
	</linearGradient>
	<path style="fill:url(#SVGID_00000119087200728138303920000016496475711483750789_);" d="M167,443.2h36.2c2.7,0,4.8,2.2,4.8,4.8
		v31.4c0,2.7-2.2,4.8-4.8,4.8H167c-2.7,0-4.8-2.2-4.8-4.8V448C162.2,445.3,164.4,443.2,167,443.2z"/>
	
		<linearGradient id="SVGID_00000168808396320909411090000009922952879417859211_" gradientUnits="userSpaceOnUse" x1="71.8" y1="726.9" x2="71.8" y2="767.9" gradientTransform="matrix(1 0 0 1 0 -426)">
		<stop  offset="0" style="stop-color:#0B0A0C"/>
		<stop  offset="0.9999" style="stop-color:#262626"/>
		<stop  offset="1" style="stop-color:#131318"/>
	</linearGradient>
	<path style="fill:url(#SVGID_00000168808396320909411090000009922952879417859211_);" d="M54.9,300.9h33.8c2.7,0,4.8,2.2,4.8,4.8
		v31.4c0,2.7-2.2,4.8-4.8,4.8H54.9c-2.7,0-4.8-2.2-4.8-4.8v-31.4C50.1,303,52.2,300.9,54.9,300.9z"/>
	
		<linearGradient id="SVGID_00000156570390331379731650000015948990070087611808_" gradientUnits="userSpaceOnUse" x1="122.4" y1="726.9" x2="122.4" y2="767.9" gradientTransform="matrix(1 0 0 1 0 -426)">
		<stop  offset="0" style="stop-color:#0B0A0C"/>
		<stop  offset="0.9999" style="stop-color:#262626"/>
		<stop  offset="1" style="stop-color:#131318"/>
	</linearGradient>
	<path style="fill:url(#SVGID_00000156570390331379731650000015948990070087611808_);" d="M106.7,300.9h31.4c2.7,0,4.8,2.2,4.8,4.8
		v31.4c0,2.7-2.2,4.8-4.8,4.8h-31.4c-2.7,0-4.8-2.2-4.8-4.8v-31.4C101.9,303,104.1,300.9,106.7,300.9z"/>
	
		<linearGradient id="SVGID_00000031177134261271333030000016486738331384941472_" gradientUnits="userSpaceOnUse" x1="145.3" y1="772.7" x2="145.3" y2="813.7" gradientTransform="matrix(1 0 0 1 0 -426)">
		<stop  offset="0" style="stop-color:#0B0A0C"/>
		<stop  offset="0.9999" style="stop-color:#262626"/>
		<stop  offset="1" style="stop-color:#131318"/>
	</linearGradient>
	<path style="fill:url(#SVGID_00000031177134261271333030000016486738331384941472_);" d="M129.7,346.7H161c2.7,0,4.8,2.2,4.8,4.8
		v31.4c0,2.7-2.2,4.8-4.8,4.8h-31.4c-2.7,0-4.8-2.2-4.8-4.8v-31.4C124.8,348.9,127,346.7,129.7,346.7z"/>
	
		<linearGradient id="SVGID_00000056406870985674051340000015418455973111116202_" gradientUnits="userSpaceOnUse" x1="157.4" y1="820.95" x2="157.4" y2="861.95" gradientTransform="matrix(1 0 0 1 0 -426)">
		<stop  offset="0" style="stop-color:#0B0A0C"/>
		<stop  offset="0.9999" style="stop-color:#262626"/>
		<stop  offset="1" style="stop-color:#131318"/>
	</linearGradient>
	<path style="fill:url(#SVGID_00000056406870985674051340000015418455973111116202_);" d="M141.7,395h31.4c2.7,0,4.8,2.2,4.8,4.8
		v31.4c0,2.7-2.2,4.8-4.8,4.8h-31.4c-2.7,0-4.8-2.2-4.8-4.8v-31.4C136.9,397.1,139.1,395,141.7,395z"/>
	
		<linearGradient id="SVGID_00000059277496893351569630000012231034840180403347_" gradientUnits="userSpaceOnUse" x1="235.8" y1="869.2" x2="235.8" y2="910.2" gradientTransform="matrix(1 0 0 1 0 -426)">
		<stop  offset="0" style="stop-color:#0B0A0C"/>
		<stop  offset="0.9999" style="stop-color:#262626"/>
		<stop  offset="1" style="stop-color:#131318"/>
	</linearGradient>
	<path style="fill:url(#SVGID_00000059277496893351569630000012231034840180403347_);" d="M220.1,443.2h31.4c2.7,0,4.8,2.2,4.8,4.8
		v31.4c0,2.7-2.2,4.8-4.8,4.8h-31.4c-2.7,0-4.8-2.2-4.8-4.8V448C215.3,445.3,217.4,443.2,220.1,443.2z"/>
	
		<linearGradient id="SVGID_00000161611969541641640800000008433921789394763158_" gradientUnits="userSpaceOnUse" x1="220.3" y1="726.9" x2="220.3" y2="767.9" gradientTransform="matrix(1 0 0 1 0 -426)">
		<stop  offset="0" style="stop-color:#0B0A0C"/>
		<stop  offset="0.9999" style="stop-color:#262626"/>
		<stop  offset="1" style="stop-color:#131318"/>
	</linearGradient>
	<path style="fill:url(#SVGID_00000161611969541641640800000008433921789394763158_);" d="M204.7,300.9H236c2.7,0,4.8,2.2,4.8,4.8
		v31.4c0,2.7-2.2,4.8-4.8,4.8h-31.4c-2.7,0-4.8-2.2-4.8-4.8v-31.4C199.8,303,202,300.9,204.7,300.9z"/>
	
		<linearGradient id="SVGID_00000039112416922248414240000012220303709591899014_" gradientUnits="userSpaceOnUse" x1="243.7984" y1="772.7" x2="243.7984" y2="813.7" gradientTransform="matrix(1 0 0 1 0 -426)">
		<stop  offset="0" style="stop-color:#0B0A0C"/>
		<stop  offset="0.9999" style="stop-color:#262626"/>
		<stop  offset="1" style="stop-color:#131318"/>
	</linearGradient>
	<path style="fill:url(#SVGID_00000039112416922248414240000012220303709591899014_);" d="M228.1,346.7h31.4c2.7,0,4.8,2.2,4.8,4.8
		v31.4c0,2.7-2.2,4.8-4.8,4.8h-31.4c-2.7,0-4.8-2.2-4.8-4.8v-31.4C223.2,348.9,225.4,346.7,228.1,346.7z"/>
	
		<linearGradient id="SVGID_00000083777930760883394710000000066913679824065675_" gradientUnits="userSpaceOnUse" x1="255.3" y1="820.95" x2="255.3" y2="861.95" gradientTransform="matrix(1 0 0 1 0 -426)">
		<stop  offset="0" style="stop-color:#0B0A0C"/>
		<stop  offset="0.9999" style="stop-color:#262626"/>
		<stop  offset="1" style="stop-color:#131318"/>
	</linearGradient>
	<path style="fill:url(#SVGID_00000083777930760883394710000000066913679824065675_);" d="M239.6,395H271c2.7,0,4.8,2.2,4.8,4.8
		v31.4c0,2.7-2.2,4.8-4.8,4.8h-31.4c-2.7,0-4.8-2.2-4.8-4.8v-31.4C234.8,397.1,237,395,239.6,395z"/>
	
		<linearGradient id="SVGID_00000109735888482344319200000009439975645148015791_" gradientUnits="userSpaceOnUse" x1="332.3" y1="869.2" x2="332.3" y2="910.2" gradientTransform="matrix(1 0 0 1 0 -426)">
		<stop  offset="0" style="stop-color:#0B0A0C"/>
		<stop  offset="0.9999" style="stop-color:#262626"/>
		<stop  offset="1" style="stop-color:#131318"/>
	</linearGradient>
	<path style="fill:url(#SVGID_00000109735888482344319200000009439975645148015791_);" d="M316.6,443.2H348c2.7,0,4.8,2.2,4.8,4.8
		v31.4c0,2.7-2.2,4.8-4.8,4.8h-31.4c-2.7,0-4.8-2.2-4.8-4.8V448C311.8,445.3,313.9,443.2,316.6,443.2z"/>
	
		<linearGradient id="SVGID_00000084497286180771318840000006472458503997669536_" gradientUnits="userSpaceOnUse" x1="318.3" y1="726.9" x2="318.3" y2="767.9" gradientTransform="matrix(1 0 0 1 0 -426)">
		<stop  offset="0" style="stop-color:#0B0A0C"/>
		<stop  offset="0.9999" style="stop-color:#262626"/>
		<stop  offset="1" style="stop-color:#131318"/>
	</linearGradient>
	<path style="fill:url(#SVGID_00000084497286180771318840000006472458503997669536_);" d="M302.6,300.9H334c2.7,0,4.8,2.2,4.8,4.8
		v31.4c0,2.7-2.2,4.8-4.8,4.8h-31.4c-2.7,0-4.8-2.2-4.8-4.8v-31.4C297.8,303,299.9,300.9,302.6,300.9z"/>
	
		<linearGradient id="SVGID_00000101061103704753602010000002702879204567364009_" gradientUnits="userSpaceOnUse" x1="342.1984" y1="772.7" x2="342.1984" y2="813.7" gradientTransform="matrix(1 0 0 1 0 -426)">
		<stop  offset="0" style="stop-color:#0B0A0C"/>
		<stop  offset="0.9999" style="stop-color:#262626"/>
		<stop  offset="1" style="stop-color:#131318"/>
	</linearGradient>
	<path style="fill:url(#SVGID_00000101061103704753602010000002702879204567364009_);" d="M326.5,346.7h31.4c2.7,0,4.8,2.2,4.8,4.8
		v31.4c0,2.7-2.2,4.8-4.8,4.8h-31.4c-2.7,0-4.8-2.2-4.8-4.8v-31.4C321.6,348.9,323.8,346.7,326.5,346.7z"/>
	
		<linearGradient id="SVGID_00000168835950283758681460000018297230109856351647_" gradientUnits="userSpaceOnUse" x1="353.2984" y1="820.95" x2="353.2984" y2="861.95" gradientTransform="matrix(1 0 0 1 0 -426)">
		<stop  offset="0" style="stop-color:#0B0A0C"/>
		<stop  offset="0.9999" style="stop-color:#262626"/>
		<stop  offset="1" style="stop-color:#131318"/>
	</linearGradient>
	<path style="fill:url(#SVGID_00000168835950283758681460000018297230109856351647_);" d="M337.6,395H369c2.7,0,4.8,2.2,4.8,4.8
		v31.4c0,2.7-2.2,4.8-4.8,4.8h-31.4c-2.7,0-4.8-2.2-4.8-4.8v-31.4C332.7,397.1,334.9,395,337.6,395z"/>
	
		<linearGradient id="SVGID_00000158016921801172530340000017329013662187136949_" gradientUnits="userSpaceOnUse" x1="428.7984" y1="869.2" x2="428.7984" y2="910.2" gradientTransform="matrix(1 0 0 1 0 -426)">
		<stop  offset="0" style="stop-color:#0B0A0C"/>
		<stop  offset="0.9999" style="stop-color:#262626"/>
		<stop  offset="1" style="stop-color:#131318"/>
	</linearGradient>
	<path style="fill:url(#SVGID_00000158016921801172530340000017329013662187136949_);" d="M413.1,443.2h31.4c2.7,0,4.8,2.2,4.8,4.8
		v31.4c0,2.7-2.2,4.8-4.8,4.8h-31.4c-2.7,0-4.8-2.2-4.8-4.8V448C408.2,445.3,410.4,443.2,413.1,443.2z"/>
	
		<linearGradient id="SVGID_00000080195539501319824550000018266966268020576643_" gradientUnits="userSpaceOnUse" x1="416.2" y1="726.9" x2="416.2" y2="767.9" gradientTransform="matrix(1 0 0 1 0 -426)">
		<stop  offset="0" style="stop-color:#0B0A0C"/>
		<stop  offset="0.9999" style="stop-color:#262626"/>
		<stop  offset="1" style="stop-color:#131318"/>
	</linearGradient>
	<path style="fill:url(#SVGID_00000080195539501319824550000018266966268020576643_);" d="M400.5,300.9h31.4c2.7,0,4.8,2.2,4.8,4.8
		v31.4c0,2.7-2.2,4.8-4.8,4.8h-31.4c-2.7,0-4.8-2.2-4.8-4.8v-31.4C395.7,303,397.8,300.9,400.5,300.9z"/>
	
		<linearGradient id="SVGID_00000150801322995494252650000003577702358931315627_" gradientUnits="userSpaceOnUse" x1="440.6" y1="772.7" x2="440.6" y2="813.7" gradientTransform="matrix(1 0 0 1 0 -426)">
		<stop  offset="0" style="stop-color:#0B0A0C"/>
		<stop  offset="0.9999" style="stop-color:#262626"/>
		<stop  offset="1" style="stop-color:#131318"/>
	</linearGradient>
	<path style="fill:url(#SVGID_00000150801322995494252650000003577702358931315627_);" d="M424.9,346.7h31.4c2.7,0,4.8,2.2,4.8,4.8
		v31.4c0,2.7-2.2,4.8-4.8,4.8h-31.4c-2.7,0-4.8-2.2-4.8-4.8v-31.4C420.1,348.9,422.2,346.7,424.9,346.7z"/>
	
		<linearGradient id="SVGID_00000119082644321603025350000016116117653948930711_" gradientUnits="userSpaceOnUse" x1="451.2" y1="820.95" x2="451.2" y2="861.95" gradientTransform="matrix(1 0 0 1 0 -426)">
		<stop  offset="0" style="stop-color:#0B0A0C"/>
		<stop  offset="0.9999" style="stop-color:#262626"/>
		<stop  offset="1" style="stop-color:#131318"/>
	</linearGradient>
	<path style="fill:url(#SVGID_00000119082644321603025350000016116117653948930711_);" d="M435.5,395h31.4c2.7,0,4.8,2.2,4.8,4.8
		v31.4c0,2.7-2.2,4.8-4.8,4.8h-31.4c-2.7,0-4.8-2.2-4.8-4.8v-31.4C430.7,397.1,432.8,395,435.5,395z"/>
	
		<linearGradient id="SVGID_00000116215253457134054990000013720007481095527821_" gradientUnits="userSpaceOnUse" x1="525.2" y1="869.2" x2="525.2" y2="910.2" gradientTransform="matrix(1 0 0 1 0 -426)">
		<stop  offset="0" style="stop-color:#0B0A0C"/>
		<stop  offset="0.9999" style="stop-color:#262626"/>
		<stop  offset="1" style="stop-color:#131318"/>
	</linearGradient>
	<path style="fill:url(#SVGID_00000116215253457134054990000013720007481095527821_);" d="M509.5,443.2h31.4c2.7,0,4.8,2.2,4.8,4.8
		v31.4c0,2.7-2.2,4.8-4.8,4.8h-31.4c-2.7,0-4.8-2.2-4.8-4.8V448C504.7,445.3,506.9,443.2,509.5,443.2z"/>
	
		<linearGradient id="SVGID_00000018915307363801111450000017301963306322612105_" gradientUnits="userSpaceOnUse" x1="514.1" y1="726.9" x2="514.1" y2="767.9" gradientTransform="matrix(1 0 0 1 0 -426)">
		<stop  offset="0" style="stop-color:#0B0A0C"/>
		<stop  offset="0.9999" style="stop-color:#262626"/>
		<stop  offset="1" style="stop-color:#131318"/>
	</linearGradient>
	<path style="fill:url(#SVGID_00000018915307363801111450000017301963306322612105_);" d="M498.4,300.9h31.4c2.7,0,4.8,2.2,4.8,4.8
		v31.4c0,2.7-2.2,4.8-4.8,4.8h-31.4c-2.7,0-4.8-2.2-4.8-4.8v-31.4C493.6,303,495.8,300.9,498.4,300.9z"/>
	
		<linearGradient id="SVGID_00000078751537232948773990000000228788988756896166_" gradientUnits="userSpaceOnUse" x1="539" y1="772.7" x2="539" y2="813.7" gradientTransform="matrix(1 0 0 1 0 -426)">
		<stop  offset="0" style="stop-color:#0B0A0C"/>
		<stop  offset="0.9999" style="stop-color:#262626"/>
		<stop  offset="1" style="stop-color:#131318"/>
	</linearGradient>
	<path style="fill:url(#SVGID_00000078751537232948773990000000228788988756896166_);" d="M523.3,346.7h31.4c2.7,0,4.8,2.2,4.8,4.8
		v31.4c0,2.7-2.2,4.8-4.8,4.8h-31.4c-2.7,0-4.8-2.2-4.8-4.8v-31.4C518.5,348.9,520.6,346.7,523.3,346.7z"/>
	
		<linearGradient id="SVGID_00000015357200455444860840000002466057648574642563_" gradientUnits="userSpaceOnUse" x1="549.1" y1="820.95" x2="549.1" y2="861.95" gradientTransform="matrix(1 0 0 1 0 -426)">
		<stop  offset="0" style="stop-color:#0B0A0C"/>
		<stop  offset="0.9999" style="stop-color:#262626"/>
		<stop  offset="1" style="stop-color:#131318"/>
	</linearGradient>
	<path style="fill:url(#SVGID_00000015357200455444860840000002466057648574642563_);" d="M533.4,395h31.4c2.7,0,4.8,2.2,4.8,4.8
		v31.4c0,2.7-2.2,4.8-4.8,4.8h-31.4c-2.7,0-4.8-2.2-4.8-4.8v-31.4C528.6,397.1,530.7,395,533.4,395z"/>
	
		<linearGradient id="SVGID_00000006668859539535836620000012394976066362910891_" gradientUnits="userSpaceOnUse" x1="621.7" y1="869.2" x2="621.7" y2="910.2" gradientTransform="matrix(1 0 0 1 0 -426)">
		<stop  offset="0" style="stop-color:#0B0A0C"/>
		<stop  offset="0.9999" style="stop-color:#262626"/>
		<stop  offset="1" style="stop-color:#131318"/>
	</linearGradient>
	<path style="fill:url(#SVGID_00000006668859539535836620000012394976066362910891_);" d="M606,443.2h31.4c2.7,0,4.8,2.2,4.8,4.8
		v31.4c0,2.7-2.2,4.8-4.8,4.8H606c-2.7,0-4.8-2.2-4.8-4.8V448C601.2,445.3,603.4,443.2,606,443.2z"/>
	
		<linearGradient id="SVGID_00000000910551023462435640000002438126314317704855_" gradientUnits="userSpaceOnUse" x1="612.0984" y1="726.9" x2="612.0984" y2="767.9" gradientTransform="matrix(1 0 0 1 0 -426)">
		<stop  offset="0" style="stop-color:#0B0A0C"/>
		<stop  offset="0.9999" style="stop-color:#262626"/>
		<stop  offset="1" style="stop-color:#131318"/>
	</linearGradient>
	<path style="fill:url(#SVGID_00000000910551023462435640000002438126314317704855_);" d="M596.4,300.9h31.4c2.7,0,4.8,2.2,4.8,4.8
		v31.4c0,2.7-2.2,4.8-4.8,4.8h-31.4c-2.7,0-4.8-2.2-4.8-4.8v-31.4C591.5,303,593.7,300.9,596.4,300.9z"/>
	
		<linearGradient id="SVGID_00000011023121360584295770000001393187289404126113_" gradientUnits="userSpaceOnUse" x1="637.4" y1="772.7" x2="637.4" y2="813.7" gradientTransform="matrix(1 0 0 1 0 -426)">
		<stop  offset="0" style="stop-color:#0B0A0C"/>
		<stop  offset="0.9999" style="stop-color:#262626"/>
		<stop  offset="1" style="stop-color:#131318"/>
	</linearGradient>
	<path style="fill:url(#SVGID_00000011023121360584295770000001393187289404126113_);" d="M621.7,346.7h31.4c2.7,0,4.8,2.2,4.8,4.8
		v31.4c0,2.7-2.2,4.8-4.8,4.8h-31.4c-2.7,0-4.8-2.2-4.8-4.8v-31.4C616.9,348.9,619,346.7,621.7,346.7z"/>
	
		<linearGradient id="SVGID_00000002375633565663789190000007042096108459602817_" gradientUnits="userSpaceOnUse" x1="647" y1="820.95" x2="647" y2="861.95" gradientTransform="matrix(1 0 0 1 0 -426)">
		<stop  offset="0" style="stop-color:#0B0A0C"/>
		<stop  offset="0.9999" style="stop-color:#262626"/>
		<stop  offset="1" style="stop-color:#131318"/>
	</linearGradient>
	<path style="fill:url(#SVGID_00000002375633565663789190000007042096108459602817_);" d="M631.3,395h31.4c2.7,0,4.8,2.2,4.8,4.8
		v31.4c0,2.7-2.2,4.8-4.8,4.8h-31.4c-2.7,0-4.8-2.2-4.8-4.8v-31.4C626.5,397.1,628.7,395,631.3,395z"/>
	
		<linearGradient id="SVGID_00000070832955100781854630000008132352093336155030_" gradientUnits="userSpaceOnUse" x1="703.1484" y1="869.2" x2="703.1484" y2="910.2" gradientTransform="matrix(1 0 0 1 0 -426)">
		<stop  offset="0" style="stop-color:#0B0A0C"/>
		<stop  offset="0.9999" style="stop-color:#262626"/>
		<stop  offset="1" style="stop-color:#131318"/>
	</linearGradient>
	<path style="fill:url(#SVGID_00000070832955100781854630000008132352093336155030_);" d="M655.5,443.2h95.3c2.7,0,4.8,2.2,4.8,4.8
		v31.4c0,2.7-2.2,4.8-4.8,4.8h-95.3c-2.7,0-4.8-2.2-4.8-4.8V448C650.6,445.3,652.8,443.2,655.5,443.2z"/>
	
		<linearGradient id="SVGID_00000013158316679164910890000009030302216392757411_" gradientUnits="userSpaceOnUse" x1="735.1" y1="772.7" x2="735.1" y2="813.7" gradientTransform="matrix(1 0 0 1 0 -426)">
		<stop  offset="0" style="stop-color:#0B0A0C"/>
		<stop  offset="0.9999" style="stop-color:#262626"/>
		<stop  offset="1" style="stop-color:#131318"/>
	</linearGradient>
	<path style="fill:url(#SVGID_00000013158316679164910890000009030302216392757411_);" d="M719.4,346.7h31.4c2.7,0,4.8,2.2,4.8,4.8
		v31.4c0,2.7-2.2,4.8-4.8,4.8h-31.4c-2.7,0-4.8-2.2-4.8-4.8v-31.4C714.6,348.9,716.7,346.7,719.4,346.7z"/>
	
		<linearGradient id="SVGID_00000139285660384840155080000000979689426308116153_" gradientUnits="userSpaceOnUse" x1="171.4" y1="726.9" x2="171.4" y2="767.9" gradientTransform="matrix(1 0 0 1 0 -426)">
		<stop  offset="0" style="stop-color:#0B0A0C"/>
		<stop  offset="0.9999" style="stop-color:#262626"/>
		<stop  offset="1" style="stop-color:#131318"/>
	</linearGradient>
	<path style="fill:url(#SVGID_00000139285660384840155080000000979689426308116153_);" d="M155.7,300.9h31.4c2.7,0,4.8,2.2,4.8,4.8
		v31.4c0,2.7-2.2,4.8-4.8,4.8h-31.4c-2.7,0-4.8-2.2-4.8-4.8v-31.4C150.9,303,153,300.9,155.7,300.9z"/>
	
		<linearGradient id="SVGID_00000088828166986736474130000017204443197834884490_" gradientUnits="userSpaceOnUse" x1="194.5984" y1="772.7" x2="194.5984" y2="813.7" gradientTransform="matrix(1 0 0 1 0 -426)">
		<stop  offset="0" style="stop-color:#0B0A0C"/>
		<stop  offset="0.9999" style="stop-color:#262626"/>
		<stop  offset="1" style="stop-color:#131318"/>
	</linearGradient>
	<path style="fill:url(#SVGID_00000088828166986736474130000017204443197834884490_);" d="M178.9,346.7h31.4c2.7,0,4.8,2.2,4.8,4.8
		v31.4c0,2.7-2.2,4.8-4.8,4.8h-31.4c-2.7,0-4.8-2.2-4.8-4.8v-31.4C174,348.9,176.2,346.7,178.9,346.7z"/>
	
		<linearGradient id="SVGID_00000169554052785140385360000016267107445541955251_" gradientUnits="userSpaceOnUse" x1="206.3" y1="820.95" x2="206.3" y2="861.95" gradientTransform="matrix(1 0 0 1 0 -426)">
		<stop  offset="0" style="stop-color:#0B0A0C"/>
		<stop  offset="0.9999" style="stop-color:#262626"/>
		<stop  offset="1" style="stop-color:#131318"/>
	</linearGradient>
	<path style="fill:url(#SVGID_00000169554052785140385360000016267107445541955251_);" d="M190.7,395H222c2.7,0,4.8,2.2,4.8,4.8
		v31.4c0,2.7-2.2,4.8-4.8,4.8h-31.4c-2.7,0-4.8-2.2-4.8-4.8v-31.4C185.9,397.1,188,395,190.7,395z"/>
	
		<linearGradient id="SVGID_00000132079222973058349590000018415319177744998028_" gradientUnits="userSpaceOnUse" x1="284" y1="869.2" x2="284" y2="910.2" gradientTransform="matrix(1 0 0 1 0 -426)">
		<stop  offset="0" style="stop-color:#0B0A0C"/>
		<stop  offset="0.9999" style="stop-color:#262626"/>
		<stop  offset="1" style="stop-color:#131318"/>
	</linearGradient>
	<path style="fill:url(#SVGID_00000132079222973058349590000018415319177744998028_);" d="M268.3,443.2h31.4c2.7,0,4.8,2.2,4.8,4.8
		v31.4c0,2.7-2.2,4.8-4.8,4.8h-31.4c-2.7,0-4.8-2.2-4.8-4.8V448C263.5,445.3,265.7,443.2,268.3,443.2z"/>
	
		<linearGradient id="SVGID_00000052086526781914101470000000178906824668403339_" gradientUnits="userSpaceOnUse" x1="269.3" y1="726.9" x2="269.3" y2="767.9" gradientTransform="matrix(1 0 0 1 0 -426)">
		<stop  offset="0" style="stop-color:#0B0A0C"/>
		<stop  offset="0.9999" style="stop-color:#262626"/>
		<stop  offset="1" style="stop-color:#131318"/>
	</linearGradient>
	<path style="fill:url(#SVGID_00000052086526781914101470000000178906824668403339_);" d="M253.6,300.9H285c2.7,0,4.8,2.2,4.8,4.8
		v31.4c0,2.7-2.2,4.8-4.8,4.8h-31.4c-2.7,0-4.8-2.2-4.8-4.8v-31.4C248.8,303,251,300.9,253.6,300.9z"/>
	
		<linearGradient id="SVGID_00000151507468833200533320000011200050046456818863_" gradientUnits="userSpaceOnUse" x1="292.9984" y1="772.7" x2="292.9984" y2="813.7" gradientTransform="matrix(1 0 0 1 0 -426)">
		<stop  offset="0" style="stop-color:#0B0A0C"/>
		<stop  offset="0.9999" style="stop-color:#262626"/>
		<stop  offset="1" style="stop-color:#131318"/>
	</linearGradient>
	<path style="fill:url(#SVGID_00000151507468833200533320000011200050046456818863_);" d="M277.3,346.7h31.4c2.7,0,4.8,2.2,4.8,4.8
		v31.4c0,2.7-2.2,4.8-4.8,4.8h-31.4c-2.7,0-4.8-2.2-4.8-4.8v-31.4C272.4,348.9,274.6,346.7,277.3,346.7z"/>
	
		<linearGradient id="SVGID_00000045594165758648007990000012706252102810868415_" gradientUnits="userSpaceOnUse" x1="304.3" y1="820.95" x2="304.3" y2="861.95" gradientTransform="matrix(1 0 0 1 0 -426)">
		<stop  offset="0" style="stop-color:#0B0A0C"/>
		<stop  offset="0.9999" style="stop-color:#262626"/>
		<stop  offset="1" style="stop-color:#131318"/>
	</linearGradient>
	<path style="fill:url(#SVGID_00000045594165758648007990000012706252102810868415_);" d="M288.6,395H320c2.7,0,4.8,2.2,4.8,4.8
		v31.4c0,2.7-2.2,4.8-4.8,4.8h-31.4c-2.7,0-4.8-2.2-4.8-4.8v-31.4C283.8,397.1,285.9,395,288.6,395z"/>
	
		<linearGradient id="SVGID_00000079485817836495114230000007069876545615917206_" gradientUnits="userSpaceOnUse" x1="380.5" y1="869.2" x2="380.5" y2="910.2" gradientTransform="matrix(1 0 0 1 0 -426)">
		<stop  offset="0" style="stop-color:#0B0A0C"/>
		<stop  offset="0.9999" style="stop-color:#262626"/>
		<stop  offset="1" style="stop-color:#131318"/>
	</linearGradient>
	<path style="fill:url(#SVGID_00000079485817836495114230000007069876545615917206_);" d="M364.8,443.2h31.4c2.7,0,4.8,2.2,4.8,4.8
		v31.4c0,2.7-2.2,4.8-4.8,4.8h-31.4c-2.7,0-4.8-2.2-4.8-4.8V448C360,445.3,362.2,443.2,364.8,443.2z"/>
	
		<linearGradient id="SVGID_00000024716872724728672390000015863346513743197850_" gradientUnits="userSpaceOnUse" x1="367.2984" y1="726.9" x2="367.2984" y2="767.9" gradientTransform="matrix(1 0 0 1 0 -426)">
		<stop  offset="0" style="stop-color:#0B0A0C"/>
		<stop  offset="0.9999" style="stop-color:#262626"/>
		<stop  offset="1" style="stop-color:#131318"/>
	</linearGradient>
	<path style="fill:url(#SVGID_00000024716872724728672390000015863346513743197850_);" d="M351.6,300.9H383c2.7,0,4.8,2.2,4.8,4.8
		v31.4c0,2.7-2.2,4.8-4.8,4.8h-31.4c-2.7,0-4.8-2.2-4.8-4.8v-31.4C346.7,303,348.9,300.9,351.6,300.9z"/>
	
		<linearGradient id="SVGID_00000176037241080084686660000002282816753276426370_" gradientUnits="userSpaceOnUse" x1="391.3" y1="772.7" x2="391.3" y2="813.7" gradientTransform="matrix(1 0 0 1 0 -426)">
		<stop  offset="0" style="stop-color:#0B0A0C"/>
		<stop  offset="0.9999" style="stop-color:#262626"/>
		<stop  offset="1" style="stop-color:#131318"/>
	</linearGradient>
	<path style="fill:url(#SVGID_00000176037241080084686660000002282816753276426370_);" d="M375.7,346.7H407c2.7,0,4.8,2.2,4.8,4.8
		v31.4c0,2.7-2.2,4.8-4.8,4.8h-31.4c-2.7,0-4.8-2.2-4.8-4.8v-31.4C370.9,348.9,373,346.7,375.7,346.7z"/>
	
		<linearGradient id="SVGID_00000012448296811575616450000003484603150774049975_" gradientUnits="userSpaceOnUse" x1="402.2" y1="820.95" x2="402.2" y2="861.95" gradientTransform="matrix(1 0 0 1 0 -426)">
		<stop  offset="0" style="stop-color:#0B0A0C"/>
		<stop  offset="0.9999" style="stop-color:#262626"/>
		<stop  offset="1" style="stop-color:#131318"/>
	</linearGradient>
	<path style="fill:url(#SVGID_00000012448296811575616450000003484603150774049975_);" d="M386.5,395h31.4c2.7,0,4.8,2.2,4.8,4.8
		v31.4c0,2.7-2.2,4.8-4.8,4.8h-31.4c-2.7,0-4.8-2.2-4.8-4.8v-31.4C381.7,397.1,383.9,395,386.5,395z"/>
	
		<linearGradient id="SVGID_00000137810281919412070250000013792090672234041773_" gradientUnits="userSpaceOnUse" x1="477" y1="869.2" x2="477" y2="910.2" gradientTransform="matrix(1 0 0 1 0 -426)">
		<stop  offset="0" style="stop-color:#0B0A0C"/>
		<stop  offset="0.9999" style="stop-color:#262626"/>
		<stop  offset="1" style="stop-color:#131318"/>
	</linearGradient>
	<path style="fill:url(#SVGID_00000137810281919412070250000013792090672234041773_);" d="M461.3,443.2h31.4c2.7,0,4.8,2.2,4.8,4.8
		v31.4c0,2.7-2.2,4.8-4.8,4.8h-31.4c-2.7,0-4.8-2.2-4.8-4.8V448C456.5,445.3,458.6,443.2,461.3,443.2z"/>
	
		<linearGradient id="SVGID_00000001645261807909375590000010027235321711849624_" gradientUnits="userSpaceOnUse" x1="465.2" y1="726.9" x2="465.2" y2="767.9" gradientTransform="matrix(1 0 0 1 0 -426)">
		<stop  offset="0" style="stop-color:#0B0A0C"/>
		<stop  offset="0.9999" style="stop-color:#262626"/>
		<stop  offset="1" style="stop-color:#131318"/>
	</linearGradient>
	<path style="fill:url(#SVGID_00000001645261807909375590000010027235321711849624_);" d="M449.5,300.9h31.4c2.7,0,4.8,2.2,4.8,4.8
		v31.4c0,2.7-2.2,4.8-4.8,4.8h-31.4c-2.7,0-4.8-2.2-4.8-4.8v-31.4C444.7,303,446.8,300.9,449.5,300.9z"/>
	
		<linearGradient id="SVGID_00000086659930877532528340000015446693081148866959_" gradientUnits="userSpaceOnUse" x1="489.8" y1="772.7" x2="489.8" y2="813.7" gradientTransform="matrix(1 0 0 1 0 -426)">
		<stop  offset="0" style="stop-color:#0B0A0C"/>
		<stop  offset="0.9999" style="stop-color:#262626"/>
		<stop  offset="1" style="stop-color:#131318"/>
	</linearGradient>
	<path style="fill:url(#SVGID_00000086659930877532528340000015446693081148866959_);" d="M474.1,346.7h31.4c2.7,0,4.8,2.2,4.8,4.8
		v31.4c0,2.7-2.2,4.8-4.8,4.8h-31.4c-2.7,0-4.8-2.2-4.8-4.8v-31.4C469.3,348.9,471.4,346.7,474.1,346.7z"/>
	
		<linearGradient id="SVGID_00000095330790065614166540000014664635525260427408_" gradientUnits="userSpaceOnUse" x1="500.1" y1="820.95" x2="500.1" y2="861.95" gradientTransform="matrix(1 0 0 1 0 -426)">
		<stop  offset="0" style="stop-color:#0B0A0C"/>
		<stop  offset="0.9999" style="stop-color:#262626"/>
		<stop  offset="1" style="stop-color:#131318"/>
	</linearGradient>
	<path style="fill:url(#SVGID_00000095330790065614166540000014664635525260427408_);" d="M484.4,395h31.4c2.7,0,4.8,2.2,4.8,4.8
		v31.4c0,2.7-2.2,4.8-4.8,4.8h-31.4c-2.7,0-4.8-2.2-4.8-4.8v-31.4C479.6,397.1,481.8,395,484.4,395z"/>
	
		<linearGradient id="SVGID_00000010993710899022329330000014499494564447458485_" gradientUnits="userSpaceOnUse" x1="573.5" y1="869.2" x2="573.5" y2="910.2" gradientTransform="matrix(1 0 0 1 0 -426)">
		<stop  offset="0" style="stop-color:#0B0A0C"/>
		<stop  offset="0.9999" style="stop-color:#262626"/>
		<stop  offset="1" style="stop-color:#131318"/>
	</linearGradient>
	<path style="fill:url(#SVGID_00000010993710899022329330000014499494564447458485_);" d="M557.8,443.2h31.4c2.7,0,4.8,2.2,4.8,4.8
		v31.4c0,2.7-2.2,4.8-4.8,4.8h-31.4c-2.7,0-4.8-2.2-4.8-4.8V448C553,445.3,555.1,443.2,557.8,443.2z"/>
	
		<linearGradient id="SVGID_00000069376532336264424100000011956396830331014035_" gradientUnits="userSpaceOnUse" x1="563.1" y1="726.9" x2="563.1" y2="767.9" gradientTransform="matrix(1 0 0 1 0 -426)">
		<stop  offset="0" style="stop-color:#0B0A0C"/>
		<stop  offset="0.9999" style="stop-color:#262626"/>
		<stop  offset="1" style="stop-color:#131318"/>
	</linearGradient>
	<path style="fill:url(#SVGID_00000069376532336264424100000011956396830331014035_);" d="M547.4,300.9h31.4c2.7,0,4.8,2.2,4.8,4.8
		v31.4c0,2.7-2.2,4.8-4.8,4.8h-31.4c-2.7,0-4.8-2.2-4.8-4.8v-31.4C542.6,303,544.7,300.9,547.4,300.9z"/>
	
		<linearGradient id="SVGID_00000047051261684816346360000002387659921972131464_" gradientUnits="userSpaceOnUse" x1="588.2" y1="772.7" x2="588.2" y2="813.7" gradientTransform="matrix(1 0 0 1 0 -426)">
		<stop  offset="0" style="stop-color:#0B0A0C"/>
		<stop  offset="0.9999" style="stop-color:#262626"/>
		<stop  offset="1" style="stop-color:#131318"/>
	</linearGradient>
	<path style="fill:url(#SVGID_00000047051261684816346360000002387659921972131464_);" d="M572.5,346.7h31.4c2.7,0,4.8,2.2,4.8,4.8
		v31.4c0,2.7-2.2,4.8-4.8,4.8h-31.4c-2.7,0-4.8-2.2-4.8-4.8v-31.4C567.7,348.9,569.8,346.7,572.5,346.7z"/>
	
		<linearGradient id="SVGID_00000182512742833388648700000011316815166332077241_" gradientUnits="userSpaceOnUse" x1="598.1" y1="820.95" x2="598.1" y2="861.95" gradientTransform="matrix(1 0 0 1 0 -426)">
		<stop  offset="0" style="stop-color:#0B0A0C"/>
		<stop  offset="0.9999" style="stop-color:#262626"/>
		<stop  offset="1" style="stop-color:#131318"/>
	</linearGradient>
	<path style="fill:url(#SVGID_00000182512742833388648700000011316815166332077241_);" d="M582.4,395h31.4c2.7,0,4.8,2.2,4.8,4.8
		v31.4c0,2.7-2.2,4.8-4.8,4.8h-31.4c-2.7,0-4.8-2.2-4.8-4.8v-31.4C577.6,397.1,579.7,395,582.4,395z"/>
	
		<linearGradient id="SVGID_00000100371159017208860170000002917460510622658712_" gradientUnits="userSpaceOnUse" x1="686.6" y1="772.7" x2="686.6" y2="813.7" gradientTransform="matrix(1 0 0 1 0 -426)">
		<stop  offset="0" style="stop-color:#0B0A0C"/>
		<stop  offset="0.9999" style="stop-color:#262626"/>
		<stop  offset="1" style="stop-color:#131318"/>
	</linearGradient>
	<path style="fill:url(#SVGID_00000100371159017208860170000002917460510622658712_);" d="M670.9,346.7h31.4c2.7,0,4.8,2.2,4.8,4.8
		v31.4c0,2.7-2.2,4.8-4.8,4.8h-31.4c-2.7,0-4.8-2.2-4.8-4.8v-31.4C666.1,348.9,668.2,346.7,670.9,346.7z"/>
	
		<linearGradient id="SVGID_00000120544193600655742670000004878857359137294977_" gradientUnits="userSpaceOnUse" x1="715.75" y1="820.95" x2="715.75" y2="861.95" gradientTransform="matrix(1 0 0 1 0 -426)">
		<stop  offset="0" style="stop-color:#0B0A0C"/>
		<stop  offset="0.9999" style="stop-color:#262626"/>
		<stop  offset="1" style="stop-color:#131318"/>
	</linearGradient>
	<path style="fill:url(#SVGID_00000120544193600655742670000004878857359137294977_);" d="M680.8,395h69.9c2.7,0,4.8,2.2,4.8,4.8
		v31.4c0,2.7-2.2,4.8-4.8,4.8h-69.9c-2.7,0-4.8-2.2-4.8-4.8v-31.4C676,397.1,678.1,395,680.8,395z"/>
	
		<linearGradient id="SVGID_00000107581719961873895300000015979278365039257017_" gradientUnits="userSpaceOnUse" x1="651.8" y1="917.4" x2="651.8" y2="958.4" gradientTransform="matrix(1 0 0 1 0 -426)">
		<stop  offset="0" style="stop-color:#0B0A0C"/>
		<stop  offset="0.9999" style="stop-color:#262626"/>
		<stop  offset="1" style="stop-color:#131318"/>
	</linearGradient>
	<path style="fill:url(#SVGID_00000107581719961873895300000015979278365039257017_);" d="M628.9,491.4h45.8c2.7,0,4.8,2.2,4.8,4.8
		v31.4c0,2.7-2.2,4.8-4.8,4.8h-45.8c-2.7,0-4.8-2.2-4.8-4.8v-31.4C624.1,493.6,626.3,491.4,628.9,491.4z"/>
	<g>
		<path class="st61" d="M191.2,492h56.7c2.3,0,4.2,1.9,4.2,4.2v31.4c0,2.3-1.9,4.2-4.2,4.2h-56.7c-2.3,0-4.2-1.9-4.2-4.2v-31.4
			C186.9,493.9,188.8,492,191.2,492z"/>
	</g>
	
		<linearGradient id="SVGID_00000105420974391306636880000000747858049518615424_" gradientUnits="userSpaceOnUse" x1="402.15" y1="710" x2="402.15" y2="943.959" gradientTransform="matrix(1 0 0 1 0 -426)">
		<stop  offset="0.3525" style="stop-color:#161616"/>
		<stop  offset="0.895" style="stop-color:#161616;stop-opacity:0"/>
	</linearGradient>
	<path style="fill:url(#SVGID_00000105420974391306636880000000747858049518615424_);" d="M44,284h716.3c3.3,0,6,2.7,6,6v247.2
		c0,3.3-2.7,6-6,6H44c-3.3,0-6-2.7-6-6V290C38,286.7,40.7,284,44,284z"/>
	<path class="st63" d="M239.9,504.8c0,0.3-0.1,0.6-0.2,0.8c-0.2,0.2-0.4,0.4-0.7,0.5s-0.6,0.1-0.9,0.1c-0.3-0.1-0.5-0.2-0.8-0.4
		c-0.2-0.2-0.3-0.5-0.4-0.8c-0.1-0.3,0-0.6,0.1-0.9s0.3-0.5,0.5-0.7s0.5-0.2,0.8-0.2h5.5c0.3,0,0.6,0.1,0.8,0.2
		c0.2,0.2,0.4,0.4,0.5,0.7c0.1,0.3,0.1,0.6,0.1,0.9c-0.1,0.3-0.2,0.5-0.4,0.8c-0.2,0.2-0.5,0.3-0.8,0.4s-0.6,0-0.9-0.1
		c-0.3-0.1-0.5-0.3-0.7-0.5s-0.2-0.5-0.2-0.8v-5.5c0-0.3,0.1-0.6,0.2-0.8c0.2-0.2,0.4-0.4,0.7-0.5s0.6-0.1,0.9-0.1
		c0.3,0.1,0.5,0.2,0.8,0.4c0.2,0.2,0.3,0.5,0.4,0.8c0.1,0.3,0,0.6-0.1,0.9s-0.3,0.5-0.5,0.7s-0.5,0.2-0.8,0.2h-5.5
		c-0.3,0-0.6-0.1-0.8-0.2c-0.2-0.2-0.4-0.4-0.5-0.7c-0.1-0.3-0.1-0.6-0.1-0.9c0.1-0.3,0.2-0.5,0.4-0.8s0.5-0.3,0.8-0.4
		s0.6,0,0.9,0.1c0.3,0.1,0.5,0.3,0.7,0.5s0.2,0.5,0.2,0.8V504.8z"/>
	<path class="st64" d="M207.8,525c1.1,0,2-0.5,2.5-1.2l-0.6-0.5c-0.4,0.6-1.1,1-1.9,1c-1.2,0-2.2-0.9-2.2-2.2s1-2.2,2.2-2.2
		c0.8,0,1.4,0.4,1.9,1l0.6-0.5c-0.5-0.7-1.4-1.2-2.5-1.2c-1.6,0-2.9,1.2-2.9,3C204.8,523.9,206.2,525,207.8,525z M212.9,525.1
		c1.3,0,2.2-1,2.2-2.2s-0.9-2.2-2.2-2.2s-2.2,1-2.2,2.2C210.8,524.1,211.7,525.1,212.9,525.1z M212.9,524.4c-0.8,0-1.4-0.7-1.4-1.5
		s0.6-1.5,1.4-1.5c0.8,0,1.4,0.7,1.4,1.5C214.4,523.7,213.7,524.4,212.9,524.4z M220.7,520.7c-0.7,0-1.2,0.3-1.5,0.8
		c-0.2-0.5-0.8-0.8-1.3-0.8c-0.6,0-1,0.3-1.2,0.7v-0.6H216v4.1h0.7v-2.3c0-0.8,0.5-1.2,1.1-1.2s1,0.5,1,1.2v2.3h0.7v-2.3
		c0-0.7,0.5-1.2,1.1-1.2s1,0.4,1,1.2v2.3h0.7v-2.5C222.4,521.4,221.7,520.7,220.7,520.7z M228.2,520.7c-0.7,0-1.2,0.3-1.5,0.8
		c-0.2-0.5-0.8-0.8-1.3-0.8c-0.6,0-1,0.3-1.2,0.7v-0.6h-0.7v4.1h0.7v-2.3c0-0.8,0.5-1.2,1.1-1.2s1,0.5,1,1.2v2.3h0.7v-2.3
		c0-0.7,0.5-1.2,1.1-1.2s1,0.4,1,1.2v2.3h0.7v-2.5C229.9,521.4,229.2,520.7,228.2,520.7z M234.2,520.8v0.6c-0.4-0.4-0.9-0.7-1.5-0.7
		c-1.2,0-2.1,0.9-2.1,2.1c0,1.2,0.9,2.2,2.1,2.2c0.6,0,1.1-0.2,1.5-0.7v0.6h0.7v-4.1L234.2,520.8L234.2,520.8z M232.8,524.4
		c-0.9,0-1.4-0.7-1.4-1.5s0.5-1.5,1.4-1.5s1.4,0.7,1.4,1.5S233.7,524.4,232.8,524.4z M236.1,525h0.7v-2.3c0-0.7,0.5-1.3,1.1-1.3
		s1.1,0.4,1.1,1.3v2.3h0.7v-2.5c0-1.2-0.8-1.7-1.6-1.7c-0.6,0-1.1,0.3-1.3,0.7v-0.6h-0.7V525z M244.1,519.1v2.3
		c-0.4-0.4-0.8-0.7-1.4-0.7c-1.2,0-2.1,1-2.1,2.2s0.9,2.2,2.1,2.2c0.6,0,1.1-0.2,1.4-0.7v0.6h0.7v-5.8L244.1,519.1L244.1,519.1z
		 M242.7,524.4c-0.9,0-1.4-0.7-1.4-1.5s0.5-1.5,1.4-1.5s1.4,0.7,1.4,1.5C244.1,523.7,243.6,524.4,242.7,524.4z"/>
	<g>
		<path class="st61" d="M384.8,395.6h32.6c2.3,0,4.2,1.9,4.2,4.2v31.4c0,2.3-1.9,4.2-4.2,4.2h-32.6c-2.3,0-4.2-1.9-4.2-4.2v-31.4
			C380.6,397.4,382.5,395.6,384.8,395.6z"/>
	</g>
	<path class="st65" d="M384.8,395.6h32.4c2.3,0,4.2,1.9,4.2,4.2v31.4c0,2.3-1.9,4.2-4.2,4.2h-32.4c-2.3,0-4.2-1.9-4.2-4.2v-31.4
		C380.6,397.5,382.5,395.6,384.8,395.6z"/>
	<g>
		<path class="st61" d="M189.8,396.6h32.6c2.3,0,4.2,1.9,4.2,4.2v31.4c0,2.3-1.9,4.2-4.2,4.2h-32.6c-2.3,0-4.2-1.9-4.2-4.2v-31.4
			C185.6,398.5,187.5,396.6,189.8,396.6z"/>
	</g>
	<path class="st65" d="M189.8,396.6h32.6c2.3,0,4.2,1.9,4.2,4.2v31.4c0,2.3-1.9,4.2-4.2,4.2h-32.6c-2.3,0-4.2-1.9-4.2-4.2v-31.4
		C185.6,398.5,187.5,396.6,189.8,396.6z"/>
	<path class="st65" d="M556.8,443.6h32.6c2.3,0,4.2,1.9,4.2,4.2v31.4c0,2.3-1.9,4.2-4.2,4.2h-32.6c-2.3,0-4.2-1.9-4.2-4.2v-31.4
		C552.6,445.5,554.5,443.6,556.8,443.6z"/>
	<path class="st66" d="M398.1,421.2h1.5v-4.8h5.4v4.8h1.4v-10.7H405v4.5h-5.4v-4.5h-1.5V421.2z"/>
	<path class="st66" d="M203,421.2h6.7v-1.4h-5.2v-3.4h4.8V415h-4.8v-3.2h5.2v-1.4H203V421.2z"/>
</g>
<g>
	<path class="st64" d="M0,12.5C0,5.6,5.6,0,12.5,0h778c6.9,0,12.5,5.6,12.5,12.5v369c0,6.9-5.6,12.5-12.5,12.5h-778
		C5.6,394,0,388.4,0,381.5V12.5z"/>
	<path class="st67" d="M0,12.5C0,5.6,5.6,0,12.5,0h778c6.9,0,12.5,5.6,12.5,12.5v369c0,6.9-5.6,12.5-12.5,12.5h-778
		C5.6,394,0,388.4,0,381.5V12.5z"/>
</g>
<g>
	<path class="st68" d="M81.9,172h441.2c2.7,0,4.9,2.2,4.9,4.9v29.2c0,2.7-2.2,4.9-4.9,4.9H81.9c-2.7,0-4.9-2.2-4.9-4.9v-29.2
		C77,174.2,79.2,172,81.9,172z"/>
	<path class="st69" d="M81.9,172h441.2c2.7,0,4.9,2.2,4.9,4.9v29.2c0,2.7-2.2,4.9-4.9,4.9H81.9c-2.7,0-4.9-2.2-4.9-4.9v-29.2
		C77,174.2,79.2,172,81.9,172z"/>
</g>
<path class="st70" d="M106.7,184v14h2.2v-14H106.7z M115.3,198.2c2.3,0,3.8-1.4,3.8-3.2c0-1.2-0.6-2-1.7-2.6
	c-0.8-0.4-1.8-0.8-2.5-1.1c-0.6-0.3-0.9-0.7-0.9-1.1c0-0.6,0.5-1.1,1.4-1.1c0.7,0,1.6,0.3,2.2,1.1l1.2-1.3c-0.8-1.1-2.1-1.6-3.4-1.6
	c-2.1,0-3.5,1.3-3.5,2.9c0,1,0.5,1.9,1.6,2.5c0.6,0.3,1.9,0.8,2.5,1.1c0.5,0.3,0.9,0.6,0.9,1.2c0,0.7-0.7,1.3-1.7,1.3
	c-0.9,0-2-0.5-2.6-1.6l-1.3,1.2C112.3,197.6,113.8,198.2,115.3,198.2z M132.6,195.8c-0.6,0.3-1.1,0.6-1.8,0.6c-1.1,0-1.6-0.7-1.6-2
	v-4.8h3.5v-1.8h-3.5v-3.6h-2.1v3.6h-1.8v1.8h1.8v4.8c0,2.5,1.1,3.9,3.4,3.9c1,0,2.1-0.3,2.8-0.9L132.6,195.8z M135.1,198h2.1v-5.6
	c0-1.7,1.1-2.9,2.7-2.9c1.4,0,2.5,1,2.5,2.9v5.6h2.1v-6.2c0-2.9-1.9-4.3-4-4.3c-1.5,0-2.7,0.7-3.2,1.6v-5.5h-2V198H135.1z
	 M157,192.7c0-3.2-2.1-5.2-5-5.2c-3.1,0-5.2,2.3-5.2,5.3c0,2.7,1.6,5.4,5.5,5.4c1.8,0,3.5-0.7,4.4-1.4l-0.9-1.5
	c-0.9,0.6-2.3,1.1-3.5,1.1c-2.1,0-3.1-1.2-3.4-2.7h8C157,193.4,157,193.1,157,192.7z M152,189.3c1.5,0,2.7,1,2.9,2.7h-6
	C149.2,190.4,150.4,189.3,152,189.3z M176.5,187.5c-1.6,0-3,0.7-3.7,1.9c-0.6-1.2-1.9-1.9-3.2-1.9s-2.5,0.7-3.1,1.8v-1.5h-2.1V198
	h2.1v-5.7c0-1.8,1.1-2.9,2.6-2.9c1.4,0,2.4,1,2.4,2.8v5.7h2.1v-5.7c0-1.7,1.1-2.9,2.6-2.9c1.4,0,2.3,1,2.3,2.8v5.8h2.1v-6.1
	C180.6,189.1,179,187.5,176.5,187.5z M193.3,192.7c0-3.2-2.1-5.2-5-5.2c-3.1,0-5.2,2.3-5.2,5.3c0,2.7,1.6,5.4,5.5,5.4
	c1.8,0,3.5-0.7,4.4-1.4l-0.9-1.5c-0.9,0.6-2.3,1.1-3.5,1.1c-2.1,0-3.1-1.2-3.4-2.7h8C193.2,193.4,193.3,193.1,193.3,192.7z
	 M188.2,189.3c1.5,0,2.7,1,2.9,2.7h-6C185.5,190.4,186.6,189.3,188.2,189.3z M203.7,187.8v1.4c-0.8-1-2-1.7-3.5-1.7
	c-2.9,0-5.1,2.2-5.1,5.3s2.1,5.4,5.1,5.4c1.5,0,2.7-0.7,3.5-1.7v1.4h2v-10.2h-2V187.8z M200.5,196.3c-2,0-3.3-1.6-3.3-3.4
	c0-1.9,1.3-3.5,3.3-3.5s3.3,1.6,3.3,3.4C203.8,194.8,202.5,196.3,200.5,196.3z M211.8,198.2c2.3,0,3.8-1.4,3.8-3.2
	c0-1.2-0.6-2-1.7-2.6c-0.8-0.4-1.8-0.8-2.5-1.1c-0.6-0.3-0.9-0.7-0.9-1.1c0-0.6,0.5-1.1,1.4-1.1c0.7,0,1.6,0.3,2.2,1.1l1.2-1.3
	c-0.8-1.1-2.1-1.6-3.4-1.6c-2.1,0-3.5,1.3-3.5,2.9c0,1,0.5,1.9,1.6,2.5c0.6,0.3,1.9,0.8,2.5,1.1c0.5,0.3,0.9,0.6,0.9,1.2
	c0,0.7-0.7,1.3-1.7,1.3c-0.9,0-2-0.5-2.6-1.6l-1.3,1.2C208.8,197.6,210.3,198.2,211.8,198.2z M222.4,198.2c2.8,0,4.5-1.7,4.5-4.4v-6
	h-2.1v6c0,1.5-0.9,2.5-2.4,2.5s-2.4-1-2.4-2.5v-6h-2.1v6C217.9,196.6,219.7,198.2,222.4,198.2z M229.9,198h2.1v-5.2
	c0-2.3,1.2-3.2,2.7-3.2c0.4,0,0.7,0.1,1.1,0.2l0.2-2c-0.4-0.1-0.9-0.2-1.2-0.2c-1.3,0-2.3,0.6-2.9,1.7v-1.5h-2L229.9,198L229.9,198z
	 M247,192.7c0-3.2-2.1-5.2-5-5.2c-3.1,0-5.2,2.3-5.2,5.3c0,2.7,1.6,5.4,5.5,5.4c1.8,0,3.5-0.7,4.4-1.4l-0.9-1.5
	c-0.9,0.6-2.3,1.1-3.5,1.1c-2.1,0-3.1-1.2-3.4-2.7h8C247,193.4,247,193.1,247,192.7z M242,189.3c1.5,0,2.7,1,2.9,2.7h-6
	C239.3,190.4,240.4,189.3,242,189.3z M260.2,187.5c-1.5,0-2.7,0.7-3.5,1.7v-1.5h-2.1v14.5h2.1v-5.6c0.8,1,2,1.7,3.5,1.7
	c3,0,5.1-2.4,5.1-5.4C265.2,189.9,263.1,187.5,260.2,187.5z M259.9,196.3c-2,0-3.3-1.6-3.3-3.5s1.3-3.4,3.3-3.4s3.3,1.6,3.3,3.4
	C263.1,194.8,261.8,196.3,259.9,196.3z M272.5,198.3c3.2,0,5.4-2.4,5.4-5.4c0-2.9-2.2-5.4-5.4-5.4s-5.4,2.4-5.4,5.4
	C267.1,195.9,269.3,198.3,272.5,198.3z M272.5,196.3c-1.9,0-3.3-1.5-3.3-3.4s1.4-3.4,3.3-3.4s3.3,1.6,3.3,3.4
	C275.8,194.8,274.4,196.3,272.5,196.3z M281.5,186.4c0.8,0,1.4-0.6,1.4-1.4c0-0.8-0.6-1.4-1.4-1.4s-1.4,0.6-1.4,1.4
	C280.1,185.8,280.7,186.4,281.5,186.4z M282.5,198v-10.2h-2.1V198H282.5z M285.6,198h2.1v-5.6c0-1.7,1.1-3,2.7-3
	c1.4,0,2.5,1,2.5,2.9v5.6h2.1v-6.2c0-2.9-1.9-4.3-4-4.3c-1.5,0-2.7,0.7-3.3,1.7v-1.4h-2.1L285.6,198L285.6,198z M304,195.8
	c-0.6,0.3-1.1,0.6-1.8,0.6c-1.1,0-1.6-0.7-1.6-2v-4.8h3.5v-1.8h-3.5v-3.6h-2.1v3.6h-1.8v1.8h1.8v4.8c0,2.5,1.1,3.9,3.4,3.9
	c1,0,2.1-0.3,2.8-0.9L304,195.8z M313.8,198h1.8l2.6-7.3l2.7,7.3h1.8l3.4-10.2h-2.2l-2.2,7.4l-2.7-7.4h-1.5l-2.6,7.4l-2.3-7.4h-2.2
	L313.8,198z M337.5,192.7c0-3.2-2.1-5.2-5-5.2c-3.1,0-5.2,2.3-5.2,5.3c0,2.7,1.6,5.4,5.5,5.4c1.8,0,3.5-0.7,4.4-1.4l-0.9-1.5
	c-0.9,0.6-2.3,1.1-3.5,1.1c-2.1,0-3.1-1.2-3.4-2.7h8C337.4,193.4,337.5,193.1,337.5,192.7z M332.5,189.3c1.5,0,2.7,1,2.9,2.7h-6
	C329.7,190.4,330.9,189.3,332.5,189.3z M345.9,195.8c-0.6,0.3-1.1,0.6-1.8,0.6c-1.1,0-1.6-0.7-1.6-2v-4.8h3.5v-1.8h-3.5v-3.6h-2.1
	v3.6h-1.8v1.8h1.8v4.8c0,2.5,1.1,3.9,3.4,3.9c1,0,2.1-0.3,2.8-0.9L345.9,195.8z M349.4,195.7c-0.7,0-1.4,0.6-1.4,1.3
	c0,0.6,0.5,1.2,1.2,1.2h0.1c-0.3,0.6-0.9,1-1.6,1.6l0.6,0.9c1.7-1.1,2.5-2.2,2.5-3.4C350.9,196.4,350.3,195.7,349.4,195.7z
	 M366.6,183.6v5.6c-0.8-1-1.9-1.7-3.4-1.7c-2.9,0-5.1,2.4-5.1,5.4s2.2,5.4,5.1,5.4c1.5,0,2.6-0.7,3.4-1.7v1.4h2.1v-14.4H366.6z
	 M363.4,196.3c-2,0-3.3-1.6-3.3-3.5s1.3-3.4,3.3-3.4s3.3,1.6,3.3,3.4C366.7,194.8,365.4,196.3,363.4,196.3z M371.8,198h2.1v-5.2
	c0-2.3,1.2-3.2,2.7-3.2c0.4,0,0.7,0.1,1.1,0.2l0.2-2c-0.4-0.1-0.9-0.2-1.2-0.2c-1.3,0-2.3,0.6-2.9,1.7v-1.5h-2L371.8,198L371.8,198z
	 M387,187.8l-2.6,7.4l-3-7.4H379l4.4,10.2l-0.3,0.8c-0.6,1.3-1.2,1.7-2,1.7c-0.4,0-0.9-0.2-1.3-0.3l-0.3,1.8c0.4,0.3,1,0.4,1.7,0.4
	c1.7,0,2.9-1,3.8-3.4l4.2-11.2H387z M401.1,198.3c3.2,0,5.4-2.4,5.4-5.4c0-2.9-2.2-5.4-5.4-5.4c-3.2,0-5.4,2.4-5.4,5.4
	C395.7,195.9,397.9,198.3,401.1,198.3z M401.1,196.3c-1.9,0-3.3-1.5-3.3-3.4s1.4-3.4,3.3-3.4s3.3,1.6,3.3,3.4
	C404.4,194.8,403,196.3,401.1,196.3z M409,198h2.1v-5.2c0-2.3,1.2-3.2,2.7-3.2c0.4,0,0.7,0.1,1.1,0.2l0.2-2
	c-0.4-0.1-0.9-0.2-1.2-0.2c-1.3,0-2.3,0.6-2.9,1.7v-1.5h-2L409,198L409,198z M427.1,187.5c-1.5,0-2.6,0.7-3.5,1.7v-5.6h-2.1V198h2.1
	v-1.5c0.8,1,1.9,1.7,3.5,1.7c2.9,0,5.1-2.4,5.1-5.4C432.2,189.9,430,187.5,427.1,187.5z M426.8,196.3c-2,0-3.3-1.5-3.3-3.4
	c0-1.8,1.3-3.4,3.3-3.4s3.2,1.6,3.2,3.4C430.1,194.8,428.8,196.3,426.8,196.3z M442.7,187.8v1.4c-0.8-1-2-1.7-3.5-1.7
	c-2.9,0-5.1,2.2-5.1,5.3s2.1,5.4,5.1,5.4c1.5,0,2.7-0.7,3.5-1.7v1.4h2v-10.2h-2V187.8z M439.5,196.3c-2,0-3.3-1.6-3.3-3.4
	c0-1.9,1.3-3.5,3.3-3.5s3.3,1.6,3.3,3.4C442.8,194.8,441.4,196.3,439.5,196.3z M450.8,198.2c2.3,0,3.8-1.4,3.8-3.2
	c0-1.2-0.6-2-1.7-2.6c-0.8-0.4-1.8-0.8-2.5-1.1c-0.6-0.3-0.9-0.7-0.9-1.1c0-0.6,0.5-1.1,1.4-1.1c0.7,0,1.6,0.3,2.2,1.1l1.2-1.3
	c-0.8-1.1-2.1-1.6-3.4-1.6c-2.1,0-3.5,1.3-3.5,2.9c0,1,0.5,1.9,1.6,2.5c0.6,0.3,1.9,0.8,2.5,1.1c0.5,0.3,0.9,0.6,0.9,1.2
	c0,0.7-0.7,1.3-1.7,1.3c-0.9,0-2-0.5-2.6-1.6l-1.3,1.2C447.8,197.6,449.3,198.2,450.8,198.2z M466.7,192.7c0-3.2-2.1-5.2-5-5.2
	c-3.1,0-5.2,2.3-5.2,5.3c0,2.7,1.6,5.4,5.5,5.4c1.8,0,3.5-0.7,4.4-1.4l-0.9-1.5c-0.9,0.6-2.3,1.1-3.5,1.1c-2.1,0-3.1-1.2-3.4-2.7h8
	C466.6,193.4,466.7,193.1,466.7,192.7z M461.7,189.3c1.5,0,2.7,1,2.9,2.7h-6C458.9,190.4,460.1,189.3,461.7,189.3z M471.2,198v-14.4
	h-2.1V198H471.2z M475.4,186.4c0.8,0,1.4-0.6,1.4-1.4c0-0.8-0.6-1.4-1.4-1.4s-1.4,0.6-1.4,1.4C473.9,185.8,474.6,186.4,475.4,186.4z
	 M476.4,198v-10.2h-2.1V198H476.4z M479.5,198h2.1v-5.6c0-1.7,1.1-3,2.7-3c1.4,0,2.5,1,2.5,2.9v5.6h2.1v-6.2c0-2.9-1.9-4.3-4-4.3
	c-1.5,0-2.7,0.7-3.2,1.7v-1.4h-2.1V198H479.5z M501.4,192.7c0-3.2-2.1-5.2-5-5.2c-3.1,0-5.2,2.3-5.2,5.3c0,2.7,1.6,5.4,5.5,5.4
	c1.8,0,3.5-0.7,4.4-1.4l-0.9-1.5c-0.9,0.6-2.3,1.1-3.5,1.1c-2.1,0-3.1-1.2-3.4-2.7h8C501.4,193.4,501.4,193.1,501.4,192.7z
	 M496.4,189.3c1.5,0,2.7,1,2.9,2.7h-6C493.6,190.4,494.8,189.3,496.4,189.3z M505.7,194.7h2v-1.3c0-2,3.9-2.8,3.9-5.9
	c0-2.3-2-4-4.4-4c-1.7,0-3.3,0.8-4.3,2.1l1.3,1.5c0.8-0.9,1.8-1.6,2.9-1.6c1.3,0,2.3,0.8,2.3,2.1c0,2.4-3.7,3-3.7,5.8L505.7,194.7
	L505.7,194.7z M506.7,198.2c0.7,0,1.3-0.6,1.3-1.3s-0.6-1.3-1.3-1.3c-0.8,0-1.4,0.6-1.4,1.3C505.3,197.7,505.9,198.2,506.7,198.2z"
	/>
<g>
	<path class="st68" d="M81.9,236h441.2c2.7,0,4.9,2.2,4.9,4.9v29.2c0,2.7-2.2,4.9-4.9,4.9H81.9c-2.7,0-4.9-2.2-4.9-4.9v-29.2
		C77,238.2,79.2,236,81.9,236z"/>
	<path class="st71" d="M81.9,236h441.2c2.7,0,4.9,2.2,4.9,4.9v29.2c0,2.7-2.2,4.9-4.9,4.9H81.9c-2.7,0-4.9-2.2-4.9-4.9v-29.2
		C77,238.2,79.2,236,81.9,236z"/>
</g>
<path class="st70" d="M106.7,262h2.2v-6.1h6.7v6.1h2.2v-14h-2.2v5.8h-6.7V248h-2.2V262z M125.9,262.3c3.2,0,5.4-2.4,5.4-5.4
	c0-2.9-2.2-5.4-5.4-5.4c-3.2,0-5.4,2.4-5.4,5.4S122.7,262.3,125.9,262.3z M125.9,260.3c-1.9,0-3.3-1.5-3.3-3.4s1.4-3.4,3.3-3.4
	s3.3,1.6,3.3,3.4C129.2,258.8,127.8,260.3,125.9,260.3z M135.9,262h1.8l2.6-7.3l2.7,7.3h1.8l3.4-10.2H146l-2.2,7.4l-2.7-7.4h-1.5
	l-2.6,7.4l-2.3-7.4h-2.2L135.9,262z"/>
<path class="st72" d="M81.9,299h441.2c2.7,0,4.9,2.2,4.9,4.9v29.2c0,2.7-2.2,4.9-4.9,4.9H81.9c-2.7,0-4.9-2.2-4.9-4.9v-29.2
	C77,301.2,79.2,299,81.9,299z"/>
<g>
	<path class="st73" d="M31.1,23H770c5.6,0,10.1,4.5,10.1,10.1V85c0,5.6-4.5,10.1-10.1,10.1H31.1C25.5,95,21,90.5,21,84.9V33.1
		C21,27.5,25.5,23,31.1,23z"/>
</g>
<path class="st74" d="M642.8,38h112c3.3,0,6,3.2,6,7.3v28c0,4-2.6,7.3-6,7.3h-112c-3.3,0-6-3.2-6-7.3v-28
	C636.8,41.2,639.4,38,642.8,38z"/>
<path class="st64" d="M680,54.2h-3.4v9.3h1.7v-3.3h1.5c2.4,0,3.3-1.4,3.3-3C683.2,55.7,682.2,54.2,680,54.2z M679.8,58.7h-1.6v-2.8
	h1.7c0.9,0,1.4,0.7,1.4,1.4C681.5,57.9,681,58.7,679.8,58.7z M687.6,63.7c1.9,0,3.1-1.1,3.1-3v-4h-1.6v4c0,0.9-0.5,1.5-1.4,1.5
	s-1.4-0.6-1.4-1.5v-4h-1.6v4C684.5,62.5,685.7,63.7,687.6,63.7z M696.2,56.5c-1,0-1.7,0.5-2.2,1V54h-1.6v9.5h1.6v-0.9
	c0.5,0.6,1.2,1.1,2.2,1.1c1.9,0,3.4-1.5,3.4-3.6C699.7,58.1,698.2,56.5,696.2,56.5z M696,62.2c-1.2,0-2-0.9-2-2.1
	c0-1.1,0.8-2.1,2-2.1c1.2,0,2,0.9,2,2.1C698,61.2,697.2,62.2,696,62.2z M702.8,63.5V54h-1.6v9.5H702.8z M705.6,55.9c0.6,0,1-0.4,1-1
	s-0.5-1-1-1c-0.6,0-1.1,0.4-1.1,1C704.6,55.4,705,55.9,705.6,55.9z M706.3,63.5v-6.8h-1.6v6.8H706.3z M710.5,63.7
	c1.6,0,2.6-1,2.6-2.2c0-0.8-0.4-1.3-1.2-1.7c-0.5-0.3-1.2-0.5-1.6-0.7s-0.6-0.4-0.6-0.7c0-0.4,0.3-0.6,0.8-0.6s1.1,0.2,1.5,0.7
	l0.9-1c-0.6-0.7-1.5-1-2.3-1c-1.5,0-2.5,0.9-2.5,2c0,0.7,0.4,1.4,1.1,1.7c0.4,0.2,1.3,0.5,1.7,0.7c0.3,0.2,0.5,0.4,0.5,0.7
	c0,0.4-0.4,0.7-1,0.7c-0.7,0-1.4-0.4-1.8-1l-0.9,1C708.3,63.2,709.3,63.7,710.5,63.7z M714.7,63.5h1.6v-3.7c0-1.1,0.7-1.8,1.6-1.8
	s1.5,0.6,1.5,1.8v3.7h1.6v-4.2c0-1.9-1.3-2.8-2.6-2.8c-1,0-1.8,0.5-2.2,1.1V54h-1.6v9.5H714.7z"/>
<path class="st75" d="M502.3,38h109.4c4,0,7.3,3.2,7.3,7.3v28.1c0,4-3.2,7.3-7.3,7.3H502.3c-4,0-7.3-3.2-7.3-7.3V45.3
	C495,41.2,498.2,38,502.3,38z"/>
<path class="st76" d="M515.4,64c2,0,3.3-1.2,3.3-2.8c0-1.1-0.6-1.8-1.5-2.3c-0.6-0.3-1.6-0.7-2.1-1c-0.4-0.2-0.8-0.5-0.8-1
	c0-0.6,0.5-1,1.3-1c0.6,0,1.5,0.3,2,0.9l1-1.2c-0.8-0.9-1.9-1.3-3-1.3c-1.8,0-3.1,1.2-3.1,2.7c0,1.1,0.6,1.8,1.5,2.3
	c0.6,0.4,1.4,0.6,2,0.9c0.5,0.2,0.9,0.6,0.9,1.1c0,0.6-0.6,1.1-1.4,1.1c-0.9,0-1.8-0.5-2.4-1.3l-1,1.2C512.7,63.4,514,64,515.4,64z
	 M525.5,57.1V58c-0.5-0.6-1.2-1-2.2-1c-1.9,0-3.4,1.5-3.4,3.5s1.4,3.6,3.4,3.6c1,0,1.7-0.4,2.2-1v0.8h1.6v-6.8H525.5z M523.5,62.5
	c-1.2,0-2-0.9-2-2.1c0-1.1,0.8-2.1,2-2.1s2,0.9,2,2.1S524.7,62.5,523.5,62.5z M533.6,57.1l-1.8,4.6l-1.8-4.6h-1.8l3,6.8h1.2l3-6.8
	H533.6z M542.8,60.3c0-2.2-1.5-3.4-3.4-3.4c-2.1,0-3.5,1.5-3.5,3.6c0,1.8,1.1,3.6,3.7,3.6c1.2,0,2.3-0.5,3-0.9l-0.7-1.2
	c-0.6,0.4-1.5,0.7-2.2,0.7c-1.2,0-1.9-0.7-2.1-1.6h5.2C542.8,60.8,542.8,60.6,542.8,60.3z M539.4,58.3c0.9,0,1.6,0.6,1.8,1.5h-3.6
	C537.8,58.9,538.5,58.3,539.4,58.3z M550.9,64c1.4,0,2.6-0.7,3.2-1.8l-1.3-0.8c-0.3,0.6-1.1,1.1-1.8,1.1c-1.2,0-2-0.9-2-2.1
	c0-1.2,0.9-2.1,2-2.1c0.8,0,1.4,0.4,1.8,1.1l1.3-0.7c-0.6-1.2-1.8-1.9-3.2-1.9c-2.2,0-3.7,1.5-3.7,3.6C547.3,62.5,548.8,64,550.9,64
	z M555.5,63.9h1.6v-3.7c0-1.1,0.7-1.8,1.6-1.8c0.9,0,1.5,0.6,1.5,1.8v3.7h1.6v-4.2c0-1.9-1.3-2.8-2.6-2.8c-1,0-1.8,0.5-2.2,1.1v-3.6
	h-1.6v9.5H555.5z M568.9,57.1V58c-0.5-0.6-1.2-1-2.2-1c-1.9,0-3.4,1.5-3.4,3.5s1.4,3.6,3.4,3.6c1,0,1.7-0.4,2.2-1v0.8h1.6v-6.8
	H568.9z M567,62.5c-1.2,0-2-0.9-2-2.1c0-1.1,0.8-2.1,2-2.1s2,0.9,2,2.1S568.2,62.5,567,62.5z M572.4,63.9h1.6v-3.7
	c0-1.1,0.7-1.8,1.7-1.8c0.9,0,1.5,0.6,1.5,1.8v3.7h1.6v-4.2c0-1.9-1.3-2.8-2.7-2.8c-1,0-1.8,0.5-2.1,1.1v-1h-1.6V63.9z M585.9,57.1
	v0.8c-0.5-0.6-1.2-1-2.2-1c-1.9,0-3.5,1.4-3.5,3.5c0,2,1.4,3.5,3.4,3.5c1,0,1.7-0.4,2.2-0.9v0.4c0,1.1-0.8,2-2.2,2
	c-0.9,0-1.8-0.4-2.4-0.8l-0.7,1.2c0.8,0.6,1.9,1,3.1,1c2.2,0,3.8-1.4,3.8-3.6v-6.1C587.4,57.1,585.9,57.1,585.9,57.1z M583.9,62.5
	c-1.2,0-2-0.9-2-2c0-1.2,0.8-2,2-2c1.1,0,2,0.9,2,2S585.1,62.5,583.9,62.5z M595.9,60.3c0-2.2-1.5-3.4-3.4-3.4
	c-2.1,0-3.5,1.5-3.5,3.6c0,1.8,1.1,3.6,3.7,3.6c1.2,0,2.3-0.5,3-0.9L595,62c-0.6,0.4-1.5,0.7-2.2,0.7c-1.2,0-1.9-0.7-2.1-1.6h5.2
	C595.9,60.8,595.9,60.6,595.9,60.3z M592.5,58.3c0.9,0,1.6,0.6,1.8,1.5h-3.6C590.9,58.9,591.6,58.3,592.5,58.3z M599.6,64.1
	c1.6,0,2.6-1,2.6-2.2c0-0.8-0.4-1.3-1.2-1.7c-0.5-0.3-1.2-0.5-1.6-0.7c-0.4-0.2-0.6-0.4-0.6-0.7c0-0.4,0.3-0.6,0.8-0.6
	s1.1,0.2,1.5,0.7l0.9-1c-0.6-0.7-1.5-1-2.3-1c-1.5,0-2.5,0.9-2.5,2c0,0.7,0.4,1.4,1.1,1.7c0.4,0.2,1.3,0.5,1.7,0.7
	c0.3,0.2,0.5,0.4,0.5,0.7c0,0.4-0.4,0.7-1,0.7c-0.7,0-1.4-0.4-1.8-1l-0.9,1C597.5,63.6,598.5,64.1,599.6,64.1z"/>
<path class="st77" d="M45,67h3.5V56.9l5.2,7.4h1.2l5.2-7.4V67h3.6V49.3h-2.4l-6.9,10.1l-7-10.1H45V67z M73.7,67.3c4.2,0,7-3.1,7-6.9
	c0-3.8-2.8-6.9-7-6.9s-7,3.1-7,6.9C66.7,64.3,69.5,67.3,73.7,67.3z M73.7,64.2c-2,0-3.6-1.7-3.6-3.7c0-2.1,1.6-3.7,3.6-3.7
	s3.6,1.7,3.6,3.7C77.3,62.5,75.7,64.2,73.7,64.2z M85.3,52.5c1.2,0,2.1-0.9,2.1-2.1c0-1.2-0.9-2.1-2.1-2.1s-2.1,0.9-2.1,2.1
	C83.2,51.6,84.1,52.5,85.3,52.5z M87,67V53.9h-3.4V67H87z M94.9,67.3c3.2,0,5.2-1.8,5.2-4.2c0-1.5-0.7-2.5-2.2-3.3
	c-1-0.5-2.3-1-3.1-1.3c-0.9-0.3-1.2-0.7-1.2-1.2c0-0.6,0.6-1.1,1.5-1.1s2,0.4,3,1.3l1.7-2.2c-1.3-1.3-2.9-1.9-4.6-1.9
	c-3,0-4.9,1.7-4.9,3.9c0,1.5,0.8,2.7,2.3,3.4c0.8,0.4,2.5,1,3.2,1.3c0.6,0.3,0.9,0.6,0.9,1.1c0,0.7-0.8,1.3-1.8,1.3
	c-1.3,0-2.7-0.7-3.6-1.8l-1.8,2.1C90.8,66.5,92.8,67.3,94.9,67.3z M111.1,63.6c-0.6,0.4-1.3,0.7-2.2,0.7c-1.3,0-1.8-0.8-1.8-2.3
	v-5.2h4.3V54h-4.3v-4.6h-3.4V54h-2.2v2.8h2.1v5.4c0,3.4,1.6,5.2,4.6,5.2c1.3,0,2.8-0.4,3.9-1.1L111.1,63.6z M120,67.3
	c3.7,0,6-2.1,6-5.8v-7.6h-3.4v7.6c0,1.6-1,2.7-2.6,2.7c-1.7,0-2.6-1.1-2.6-2.7v-7.6H114v7.6C114,65.2,116.4,67.3,120,67.3z
	 M129.4,67h3.4v-6.2c0-2.9,1.4-4,3.2-4c0.5,0,1,0.1,1.6,0.3l0.3-3.2c-0.5-0.2-1.1-0.3-1.6-0.3c-1.5,0-2.8,0.7-3.6,2.1v-1.8h-3.2
	L129.4,67L129.4,67z M152.3,60.2c0-4.2-2.8-6.6-6.6-6.6c-4.1,0-6.8,3-6.8,6.9c0,3.5,2.2,6.8,7.1,6.8c2.4,0,4.5-0.9,5.7-1.8l-1.3-2.4
	c-1.1,0.8-2.8,1.3-4.2,1.3c-2.2,0-3.4-1.2-3.8-2.8h9.8C152.2,61.2,152.3,60.7,152.3,60.2z M145.7,56.4c1.7,0,3,1.1,3.3,2.7h-6.6
	C142.7,57.4,144,56.4,145.7,56.4z M169.7,63.6c-0.6,0.4-1.3,0.7-2.2,0.7c-1.3,0-1.8-0.8-1.8-2.3v-5.2h4.3V54h-4.3v-4.6h-3.4V54h-2.2
	v2.8h2.1v5.4c0,3.4,1.6,5.2,4.6,5.2c1.3,0,2.8-0.4,3.9-1.1L169.7,63.6z M172.8,67h3.4v-6.2c0-2.9,1.4-4,3.2-4c0.5,0,1,0.1,1.6,0.3
	l0.3-3.2c-0.5-0.2-1.1-0.3-1.6-0.3c-1.5,0-2.8,0.7-3.6,2.1v-1.8h-3.2L172.8,67L172.8,67z M192.9,53.9v1.6c-1-1.1-2.3-1.9-4.2-1.9
	c-3.7,0-6.5,2.9-6.5,6.8s2.7,6.9,6.5,6.9c1.8,0,3.2-0.8,4.2-1.8V67h3.2V53.9H192.9z M189.3,64.2c-2.2,0-3.6-1.7-3.6-3.8
	c0-2,1.5-3.8,3.6-3.8c2.2,0,3.7,1.7,3.7,3.8C192.9,62.5,191.4,64.2,189.3,64.2z M205.9,67.3c2.7,0,5-1.4,6.1-3.5l-2.7-1.6
	c-0.6,1.1-1.9,2-3.3,2c-2.1,0-3.6-1.6-3.6-3.7c0-2.1,1.6-3.7,3.7-3.7c1.4,0,2.6,0.8,3.3,2l2.7-1.5c-1.1-2.4-3.5-3.6-6.1-3.6
	c-4.2,0-7,2.9-7,6.9S201.8,67.3,205.9,67.3z M223.2,67h4.2l-6.2-7.7l5.8-5.4h-4.3l-4.8,4.5v-9.6h-3.4V67h3.4v-4.8l0.9-0.8L223.2,67z
	 M230.8,52.5c1.2,0,2.1-0.9,2.1-2.1c0-1.2-0.9-2.1-2.1-2.1s-2.1,0.9-2.1,2.1S229.6,52.5,230.8,52.5z M232.5,67V53.9h-3.4V67H232.5z
	 M236,67h3.4v-7c0-2,1.2-3.3,3-3.3c1.6,0,2.8,1.1,2.8,3.2V67h3.4v-8c0-3.7-2.5-5.4-5.1-5.4c-1.9,0-3.4,1-4.1,2.2V54H236V67z
	 M261.9,53.9v1.4c-0.9-1-2.3-1.8-4-1.8c-3.7,0-6.7,2.8-6.7,6.7c0,3.8,2.7,6.7,6.5,6.7c1.8,0,3.1-0.7,4-1.7V66c0,2-1.4,3.6-4.1,3.6
	c-1.8,0-3.4-0.7-4.6-1.5l-1.3,2.5c1.5,1.1,3.7,1.9,6,1.9c4.2,0,7.2-2.6,7.2-6.8V53.9H261.9z M258.2,64.1c-2.1,0-3.6-1.6-3.6-3.7
	c0-2.1,1.5-3.7,3.6-3.7s3.6,1.6,3.6,3.7S260.3,64.1,258.2,64.1z"/>
<path class="st77" d="M96.3,153.2c-0.8,0.3-1.7,0.4-2.5,0.4c-1.2,0-2.2-0.4-3-1.1c3.4-1.4,5.6-4.6,5.6-8.5c0-5.1-4-9.2-9.2-9.2
	s-9.3,4.1-9.3,9.2c0,4.9,3.9,8.9,8.9,9.2c1.9,2.4,4.3,3.4,6.7,3.4c1.1,0,2.2-0.2,3.2-0.6L96.3,153.2z M81.6,144.2
	c0-3.3,2.5-5.8,5.6-5.8s5.6,2.4,5.6,5.8c0,3.3-2.5,5.7-5.6,5.7C84.1,149.8,81.6,147.4,81.6,144.2z M105.2,153.3c3.7,0,6-2.1,6-5.8
	v-7.6h-3.4v7.6c0,1.6-1,2.7-2.6,2.7s-2.6-1.1-2.6-2.7v-7.6h-3.4v7.6C99.2,151.2,101.5,153.3,105.2,153.3z M127.3,146.2
	c0-4.2-2.8-6.6-6.6-6.6c-4.1,0-6.8,3-6.8,6.9c0,3.5,2.2,6.8,7.1,6.8c2.4,0,4.5-0.9,5.7-1.8l-1.3-2.4c-1.1,0.8-2.8,1.3-4.2,1.3
	c-2.2,0-3.4-1.2-3.8-2.8h9.8C127.2,147.2,127.3,146.7,127.3,146.2z M120.7,142.4c1.7,0,3,1.1,3.3,2.7h-6.6
	C117.8,143.4,119,142.4,120.7,142.4z M134.4,153.3c3.2,0,5.2-1.8,5.2-4.2c0-1.5-0.7-2.5-2.2-3.3c-1-0.5-2.3-1-3.1-1.3
	c-0.9-0.3-1.2-0.7-1.2-1.2c0-0.6,0.6-1.1,1.5-1.1s2,0.4,3,1.3l1.7-2.2c-1.3-1.3-2.9-1.9-4.6-1.9c-3,0-4.9,1.7-4.9,3.9
	c0,1.5,0.8,2.7,2.3,3.4c0.8,0.4,2.5,1,3.2,1.3c0.6,0.3,0.9,0.6,0.9,1.1c0,0.7-0.8,1.3-1.8,1.3c-1.3,0-2.7-0.7-3.6-1.8l-1.8,2.1
	C130.3,152.5,132.3,153.3,134.4,153.3z M150.6,149.6c-0.6,0.4-1.3,0.7-2.2,0.7c-1.3,0-1.8-0.8-1.8-2.3v-5.2h4.3V140h-4.3v-4.6h-3.4
	v4.6H141v2.8h2.1v5.4c0,3.4,1.6,5.2,4.6,5.2c1.3,0,2.8-0.4,3.9-1.1L150.6,149.6z M155.5,138.5c1.2,0,2.1-0.9,2.1-2.1
	c0-1.2-0.9-2.1-2.1-2.1s-2.1,0.9-2.1,2.1S154.3,138.5,155.5,138.5z M157.2,153v-13.1h-3.4V153H157.2z M167,153.3c4.2,0,7-3.1,7-6.9
	c0-3.8-2.8-6.9-7-6.9s-7,3.1-7,6.9C160,150.3,162.8,153.3,167,153.3z M167,150.2c-2,0-3.6-1.7-3.6-3.7c0-2.1,1.6-3.7,3.6-3.7
	s3.6,1.7,3.6,3.7S169,150.2,167,150.2z M176.8,153h3.4v-7c0-2,1.2-3.3,3-3.3c1.6,0,2.8,1.1,2.8,3.2v7.1h3.4v-8
	c0-3.7-2.5-5.4-5.1-5.4c-1.9,0-3.4,1-4.1,2.2V140h-3.3L176.8,153L176.8,153z"/>
<rect x="31" y="182.5" class="st70" width="4.9" height="4.9"/>
<rect x="31" y="189.8" class="st70" width="4.9" height="4.9"/>
<rect x="31" y="197.2" class="st70" width="4.9" height="4.9"/>
<rect x="38.4" y="182.5" class="st70" width="4.9" height="4.9"/>
<rect x="38.4" y="189.8" class="st70" width="4.9" height="4.9"/>
<rect x="38.4" y="197.2" class="st70" width="4.9" height="4.9"/>
<path class="st78" d="M747.8,188.8h-8.1c-0.1,0-0.2,0.1-0.2,0.2v1.1c0,0.1,0.1,0.2,0.2,0.2h8.1c0.1,0,0.2-0.1,0.2-0.2V189
	C748,188.9,747.9,188.8,747.8,188.8z"/>
<path class="st78" d="M743.8,179.7c-5.4,0-9.8,4.4-9.8,9.8c0,5.4,4.4,9.8,9.8,9.8c5.4,0,9.8-4.4,9.8-9.8
	C753.6,184.1,749.2,179.7,743.8,179.7z M743.8,197.6c-4.5,0-8.2-3.6-8.2-8.1s3.7-8.1,8.2-8.1s8.2,3.6,8.2,8.1
	S748.3,197.6,743.8,197.6z"/>
<rect x="31" y="246.5" class="st70" width="4.9" height="4.9"/>
<rect x="31" y="253.8" class="st70" width="4.9" height="4.9"/>
<rect x="31" y="261.2" class="st70" width="4.9" height="4.9"/>
<rect x="38.4" y="246.5" class="st70" width="4.9" height="4.9"/>
<rect x="38.4" y="253.8" class="st70" width="4.9" height="4.9"/>
<rect x="38.4" y="261.2" class="st70" width="4.9" height="4.9"/>
<path class="st78" d="M747.8,252.7h-8.1c-0.1,0-0.2,0.1-0.2,0.2v1c0,0.1,0.1,0.2,0.2,0.2h8.1c0.1,0,0.2-0.1,0.2-0.2v-1
	C748,252.8,747.9,252.7,747.8,252.7z"/>
<path class="st78" d="M743.8,243.6c-5.4,0-9.8,4.4-9.8,9.8s4.4,9.8,9.8,9.8c5.4,0,9.8-4.4,9.8-9.8S749.2,243.6,743.8,243.6z
	 M743.8,261.5c-4.5,0-8.2-3.6-8.2-8.1s3.7-8.1,8.2-8.1s8.2,3.6,8.2,8.1S748.3,261.5,743.8,261.5z"/>
<rect x="31" y="309.5" class="st70" width="4.9" height="4.9"/>
<rect x="31" y="316.8" class="st70" width="4.9" height="4.9"/>
<rect x="31" y="324.2" class="st70" width="4.9" height="4.9"/>
<rect x="38.4" y="309.5" class="st70" width="4.9" height="4.9"/>
<rect x="38.4" y="316.8" class="st70" width="4.9" height="4.9"/>
<rect x="38.4" y="324.2" class="st70" width="4.9" height="4.9"/>
<path class="st78" d="M747.8,315.6h-8.1c-0.1,0-0.2,0.1-0.2,0.2v1.1c0,0.1,0.1,0.2,0.2,0.2h8.1c0.1,0,0.2-0.1,0.2-0.2v-1.1
	C748,315.7,747.9,315.6,747.8,315.6z"/>
<path class="st78" d="M743.8,306.5c-5.4,0-9.8,4.4-9.8,9.8s4.4,9.8,9.8,9.8c5.4,0,9.8-4.4,9.8-9.8S749.2,306.5,743.8,306.5z
	 M743.8,324.5c-4.5,0-8.2-3.6-8.2-8.1s3.7-8.1,8.2-8.1s8.2,3.6,8.2,8.1C752,320.8,748.3,324.5,743.8,324.5z"/>
<line class="st79" x1="105.1" y1="242" x2="105.1" y2="268"/>
<g>
	<path d="M116.4,263.9c0.2-0.2,0.4-0.3,0.6-0.3s0.5,0,0.7,0.1l30.6,13.6c0.2,0.1,0.4,0.2,0.5,0.4c0.1,0.2,0.2,0.4,0.2,0.7
		c0,0.2-0.1,0.5-0.2,0.7c-0.1,0.2-0.3,0.3-0.5,0.4l-11.5,4.9l-4.9,11.4c-0.1,0.2-0.2,0.4-0.4,0.5s-0.4,0.2-0.7,0.2
		c-0.2,0-0.5-0.1-0.7-0.2s-0.4-0.3-0.4-0.5l-13.6-30.5c-0.1-0.2-0.1-0.5-0.1-0.7C116.1,264.3,116.2,264.1,116.4,263.9L116.4,263.9z
		 M130.8,292.3l4-9.4c0.1-0.3,0.3-0.5,0.6-0.6l9.4-4l-25.2-11.2L130.8,292.3z"/>
	<path class="st64" d="M130.8,292.3l4-9.4c0.1-0.3,0.3-0.5,0.6-0.6l9.4-4l-25.2-11.2L130.8,292.3z"/>
</g>
<g>
	<path class="st80" d="M341,421h128c6.1,0,11,4.9,11,11v32c0,6.1-4.9,11-11,11H341c-6.1,0-11-4.9-11-11v-32
		C330,425.9,334.9,421,341,421z"/>
</g>
<path class="st64" d="M370.7,442.7V454h2.9v-11.3h4V440h-10.9v2.7H370.7z M385.6,443.6l-2.4,6.7l-2.7-6.7h-3.1l4.5,10.2l-0.2,0.5
	c-0.5,1.1-1.2,1.6-2,1.6c-0.5,0-0.9-0.2-1.3-0.3l-0.5,2.2c0.5,0.3,1.2,0.5,2,0.5c2.1,0,3.4-1.4,4.4-3.9l4.2-10.9L385.6,443.6
	L385.6,443.6z M396.3,443.4c-1.5,0-2.5,0.7-3.3,1.5v-1.3h-2.7v14.6h2.7v-5.5c0.8,0.8,1.8,1.4,3.2,1.4c3,0,5.1-2.4,5.1-5.4
	S399.2,443.4,396.3,443.4z M395.8,451.8c-1.7,0-2.9-1.3-2.9-3c0-1.6,1.1-3,2.9-3c1.7,0,2.9,1.3,2.9,3
	C398.6,450.5,397.5,451.8,395.8,451.8z M405,442.5c0.9,0,1.7-0.7,1.7-1.7c0-0.9-0.7-1.6-1.7-1.6c-0.9,0-1.7,0.7-1.7,1.6
	C403.4,441.8,404.1,442.5,405,442.5z M406.3,454v-10.4h-2.7V454H406.3z M409.1,454h2.7v-5.5c0-1.6,1-2.6,2.4-2.6
	c1.3,0,2.2,0.9,2.2,2.6v5.6h2.7v-6.3c0-2.9-2-4.3-4-4.3c-1.5,0-2.7,0.8-3.2,1.7v-1.4h-2.6V454H409.1z M429.6,443.6v1.1
	c-0.7-0.8-1.8-1.4-3.2-1.4c-2.9,0-5.3,2.2-5.3,5.3c0,3,2.1,5.3,5.2,5.3c1.4,0,2.5-0.5,3.2-1.3v0.5c0,1.6-1.1,2.9-3.2,2.9
	c-1.4,0-2.7-0.6-3.6-1.2l-1,2c1.2,0.9,2.9,1.5,4.8,1.5c3.3,0,5.7-2.1,5.7-5.4v-9.3H429.6z M426.7,451.7c-1.7,0-2.9-1.3-2.9-2.9
	c0-1.7,1.2-2.9,2.9-2.9c1.7,0,2.9,1.2,2.9,2.9C429.6,450.4,428.4,451.7,426.7,451.7z M436.1,454.3c0.8,0,1.5-0.7,1.5-1.6
	s-0.7-1.5-1.5-1.5c-0.9,0-1.6,0.7-1.6,1.5C434.5,453.6,435.2,454.3,436.1,454.3z M441.2,454.3c0.8,0,1.5-0.7,1.5-1.6
	s-0.7-1.5-1.5-1.5c-0.9,0-1.6,0.7-1.6,1.5C439.6,453.6,440.3,454.3,441.2,454.3z M446.3,454.3c0.8,0,1.5-0.7,1.5-1.6
	s-0.7-1.5-1.5-1.5c-0.9,0-1.6,0.7-1.6,1.5C444.7,453.6,445.4,454.3,446.3,454.3z"/>
</svg>
