<?xml version="1.0" encoding="utf-8"?>
<!-- Generator: Adobe Illustrator 26.0.1, SVG Export Plug-In . SVG Version: 6.00 Build 0)  -->
<svg version="1.1" id="Logo" xmlns="http://www.w3.org/2000/svg" xmlns:xlink="http://www.w3.org/1999/xlink" x="0px" y="0px"
	 viewBox="0 0 1100 230" style="enable-background:new 0 0 1100 230;" xml:space="preserve">
<style type="text/css">
	.st0{fill:#E6F0FA;}
	.st1{fill:#0099EE;}
</style>
<g id="logotype">
	<path class="st0" d="M404.4,84.7c6.3,6.3,9.6,14.9,9.6,26V161h-20v-46.6c0-13.5-7.2-20.8-17.7-20.8c-11.2,0-19.3,8.5-19.3,21.4v46
		h-20v-46.5c0-13.1-7-20.9-17.6-20.9c-11.2,0-19.4,8.5-19.4,21.6V161h-20V77.4h19.7v12c4.8-8.8,14.5-14.3,25.4-14.3
		c10.9,0.1,20.5,5.2,24.9,14.9c6-9.4,17.2-14.9,30-14.9C390,75.1,398,78.4,404.4,84.7"/>
	<path class="st0" d="M491,101.1c-4.6-4.9-10.5-7.4-17.7-7.4s-13.1,2.5-17.7,7.4c-9,10.4-9,25.8,0,36.2c4.6,4.9,10.5,7.4,17.7,7.4
		s13.1-2.5,17.7-7.4C500.2,127,500.2,111.4,491,101.1 M497.5,77.4h19.1V161h-19.1v-10.3c-6.8,8-16.8,12.5-27.2,12.3
		c-12,0-21.9-4.1-29.7-12.6s-11.7-19.1-11.7-31.6s3.8-22.9,11.7-31.1s17.8-12.3,29.7-12.3c10.6,0,19.7,4.2,27.2,12.6L497.5,77.4z"/>
	<path class="st0" d="M594.6,136.5c4.6-4.8,6.9-10.8,6.9-18c0-7.2-2.3-13.1-6.9-17.7c-4.5-4.7-10.9-7.3-17.4-7.1
		c-7.1,0-12.9,2.3-17.5,7.1c-4.6,4.6-6.9,10.5-6.9,17.7s2.3,13.2,6.9,18s10.5,7.1,17.5,7.1C583.7,143.8,590,141.2,594.6,136.5
		 M601.5,77.4h18.8v75.2c0,13.4-4.3,24-12.8,31.9s-19.5,11.9-33.2,11.9c-13.6,0.2-26.9-4.1-38-12l8.2-15.2
		c9.4,6.6,19.2,9.9,29.4,9.9c17.1,0,27.1-10,27.1-24.3v-4.9c-6.8,7.5-15.7,11.4-26.6,11.4c-12.2,0-22.2-4-30-12.1
		s-11.7-18.3-11.7-30.6c0-12.5,4-22.8,12.2-30.8c8.2-8.2,18.3-12.2,30.3-12.2c10.2-0.2,19.9,4.2,26.5,12L601.5,77.4z"/>
	<path class="st0" d="M660.1,161h-20.2V77.4h20.2V161z M637.3,54.8c0-6.9,5.5-12.6,12.5-12.6c0.2,0,0.3,0,0.5,0
		c7,0,12.6,5.7,12.6,12.6c0,7-5.7,12.6-12.6,12.6C642.8,67.4,637.3,62.2,637.3,54.8"/>
	<path class="st0" d="M687.9,150.5c-8.2-8.2-12.3-18.6-12.3-31.4s4.2-23.2,12.5-31.4s19.1-12.3,32.3-12.3c17.1,0,32,8.3,38.8,22.9
		l-16.3,8.8c-4.9-8.2-12.9-13.2-22.2-13.2c-6.7-0.2-13.3,2.4-18,7.2c-4.8,4.8-7.1,10.8-7.1,18s2.3,13.2,6.9,18
		c4.6,4.8,10.9,7.4,17.5,7.2c9.2,0,18.3-5.2,22.5-13.1l16.3,9.5c-7.2,13.4-22,22-39.1,22C706.8,162.8,696.2,158.7,687.9,150.5"/>
	<path class="st0" d="M799.2,137.4c4.5,4.8,10.3,7.2,17.5,7.2s13.1-2.5,17.5-7.2c4.5-5,6.9-11.5,6.7-18.2c0.2-6.7-2.2-13.1-6.8-18
		c-4.5-4.9-10.3-7.4-17.5-7.4c-7.2,0-13.1,2.5-17.5,7.4C790.1,111.7,790.1,127.1,799.2,137.4 M849.5,88.2
		c7.8,8.5,11.7,18.8,11.7,30.9c0,12.3-4,22.8-11.8,31.2S831.7,163,819.8,163c-10.6,0-19.7-4.1-26.9-12.5v44.8h-20.2V77.4h20v11.1
		C800,79.7,809,75.4,820,75.4C831.2,75.2,842,79.9,849.5,88.2"/>
	<rect x="877" y="44" class="st0" width="20" height="117"/>
	<path class="st0" d="M975.2,101.1c-4.6-4.9-10.5-7.4-17.7-7.4s-13.1,2.5-17.7,7.4c-9,10.4-9,25.8,0,36.2c4.6,4.9,10.5,7.4,17.7,7.4
		s13.1-2.5,17.7-7.4C984.5,127,984.5,111.4,975.2,101.1 M981.7,77.4h19.1V161h-19.1v-10.3c-6.8,8-16.8,12.5-27.2,12.3
		c-12,0-21.8-4.1-29.7-12.6s-11.7-19.1-11.7-31.6s3.8-22.9,11.7-31.1c7.9-8.1,17.8-12.3,29.7-12.3c10.6,0,19.7,4.2,27.2,12.6V77.4z"
		/>
	<path class="st0" d="M1021.3,161V77.4h19.7v11.7c4.5-8.5,14.2-13.9,26.3-13.9c8.6-0.2,17,3.1,23.2,9.1c6.3,6,9.5,14.5,9.5,25.7V161
		h-20.1v-45.4c0-14-7.2-22-18.3-22c-11.8,0-20.3,9.2-20.3,22.3V161H1021.3z"/>
</g>
<g id="icon">
	<polygon id="outline" class="st1" points="0,0 0,230 70,230 70,210 20,210 20,20 210,20 210,210 160,210 160,230 230,230 230,0 	
		"/>
	<path id="m" class="st0" d="M173.4,84.7c6.3,6.3,9.6,14.9,9.6,26V161h-20v-46.6c0-13.5-7.2-20.8-17.7-20.8
		c-11.2,0-19.3,8.5-19.3,21.4v46h-20v-46.5c0-13.1-7-20.9-17.6-20.9c-11.2,0-19.4,8.5-19.4,21.6V161H49V77.4h19.7v12
		c4.8-8.8,14.5-14.3,25.4-14.3c10.9,0.1,20.5,5.2,24.9,14.9c6-9.4,17.2-14.9,30-14.9C159,75.1,167,78.4,173.4,84.7"/>
</g>
</svg>
